<?xml version="1.0" encoding="UTF-8"?>
<svg width="3000px" height="460px" viewBox="0 0 3000 460" version="1.1" xmlns="http://www.w3.org/2000/svg" xmlns:xlink="http://www.w3.org/1999/xlink">
    <!-- Generator: Sketch 54.1 (76490) - https://sketchapp.com -->
    <title>编组 36</title>
    <desc>Created with Sketch.</desc>
    <defs>
        <radialGradient cx="50%" cy="44.2592221%" fx="50%" fy="44.2592221%" r="179.646467%" gradientTransform="translate(0.500000,0.442592),scale(0.153333,1.000000),translate(-0.500000,-0.442592)" id="radialGradient-1">
            <stop stop-color="#003897" offset="0%"></stop>
            <stop stop-color="#002C78" offset="100%"></stop>
        </radialGradient>
        <linearGradient x1="49.7320317%" y1="104.501916%" x2="49.7321398%" y2="0%" id="linearGradient-2">
            <stop stop-color="#136FFF" stop-opacity="0" offset="0%"></stop>
            <stop stop-color="#01F5FF" offset="47.6476282%"></stop>
            <stop stop-color="#136FFF" stop-opacity="0" offset="100%"></stop>
        </linearGradient>
    </defs>
    <g id="页面1" stroke="none" stroke-width="1" fill="none" fill-rule="evenodd">
        <g id="编组-36">
            <rect id="矩形复制-10" fill="url(#radialGradient-1)" x="0" y="0" width="3000" height="460"></rect>
            <g id="编组-2复制-2" transform="translate(984.946000, 265.000000)" fill="url(#linearGradient-2)">
                <path d="M291.496667,-145 C289.856305,-142.495 288.216975,-139.956 286.642104,-137.271 L286.642104,-137.271 L284.330849,-133.129 C283.945125,-132.437 283.556822,-131.749 283.182442,-131.032 L283.182442,-131.032 L282.090758,-128.829 L279.900687,-124.408 C279.198338,-122.882 278.523835,-121.307 277.833347,-119.754 L277.833347,-119.754 L276.809217,-117.403 L275.841811,-114.956 C275.201342,-113.317 274.554171,-111.685 273.940002,-110.001 L273.940002,-110.001 C271.50086,-103.242 269.356168,-96.005 267.652895,-88.319 L267.652895,-88.319 C265.93415,-80.655 264.73005,-72.449 264.270583,-64.047 L264.270583,-64.047 C264.118975,-61.447 264.055547,-58.829 264.054,-56.216 L264.054,-56.216 L264.054,-56.052 C264.054516,-54.506 264.077205,-52.962 264.115365,-51.424 L264.115365,-51.424 C264.204061,-49.325 264.27574,-47.235 264.458289,-45.164 L264.458289,-45.164 L264.693952,-42.063 C264.775429,-41.032 264.916208,-40.016 265.0245,-38.997 L265.0245,-38.997 C265.930541,-30.835 267.464158,-23.077 269.317493,-15.739 L269.317493,-15.739 C273.077278,-1.067 278.209789,11.891 283.236072,24.77 L283.236072,24.77 L287.017,34.372 L288.876523,39.174 C289.495848,40.766 290.121878,42.351 290.719545,43.961 L290.719545,43.961 C293.141669,50.363 295.471488,56.799 297.439303,63.537 L297.439303,63.537 C297.921975,65.228 298.378347,66.939 298.837813,68.644 L298.837813,68.644 C299.245196,70.389 299.695381,72.102 300.068729,73.863 L300.068729,73.863 L300.624627,76.509 L300.899481,77.831 L301.134113,79.178 C301.448159,80.972 301.780769,82.753 302.006635,84.589 L302.006635,84.589 C303.02303,91.863 303.578412,99.341 303.558301,106.885 L303.558301,106.885 C303.580475,114.422 303.072019,121.978 302.135554,129.412 L302.135554,129.412 C301.866887,131.255 301.651851,133.13 301.342446,134.957 L301.342446,134.957 C301.019633,136.777 300.721573,138.617 300.380197,140.432 L300.380197,140.432 L299.289544,145.85 L298.052441,151.18 L296.691059,156.426 C296.22592,158.169 295.717981,159.873 295.232215,161.605 L295.232215,161.605 C294.207569,165.007 293.145279,168.391 292.023686,171.72 L292.023686,171.72 C289.771219,178.363 287.312997,184.806 284.768657,191.201 L284.768657,191.201 L285.139428,191.892 C288.341252,186.678 291.345058,180.971 294.116295,174.805 L294.116295,174.805 C294.793376,173.24 295.500366,171.712 296.155789,170.103 L296.155789,170.103 C296.801413,168.478 297.465087,166.875 298.085444,165.205 L298.085444,165.205 C298.69394,163.52 299.32461,161.858 299.917636,160.141 L299.917636,160.141 C300.496739,158.406 301.063981,156.652 301.62091,154.883 L301.62091,154.883 L303.194234,149.443 L304.618012,143.821 C305.052726,141.908 305.444639,139.949 305.858726,138.009 L305.858726,138.009 C306.260952,136.059 306.569841,134.033 306.928751,132.041 L306.928751,132.041 C308.242691,123.992 308.977527,115.499 309.047143,106.949 L309.047143,106.949 C309.128104,98.406 308.491762,89.781 307.156164,81.631 L307.156164,81.631 C305.836552,73.47 303.918757,65.767 301.612144,58.714 L301.612144,58.714 C299.314813,51.64 296.706014,45.096 293.935809,38.952 L293.935809,38.952 C292.556378,35.866 291.131053,32.893 289.688711,29.966 L289.688711,29.966 L285.376122,21.227 C283.955438,18.306 282.518768,15.415 281.161512,12.406 L281.161512,12.406 C279.78827,9.422 278.452157,6.375 277.214021,3.194 L277.214021,3.194 C274.705263,-3.113 272.467235,-9.855 270.819138,-17.103 L270.819138,-17.103 C269.165884,-24.342 268.163413,-32.075 267.828224,-39.826 L267.828224,-39.826 C267.501286,-47.587 267.737981,-55.344 268.51304,-62.859 L268.51304,-62.859 C269.248908,-70.386 270.395769,-77.742 271.874724,-84.916 L271.874724,-84.916 C273.377916,-92.071 275.212687,-99.023 277.291888,-105.76 L277.291888,-105.76 C277.812204,-107.444 278.384087,-109.072 278.916264,-110.75 L278.916264,-110.75 L279.73103,-113.25 L280.604068,-115.683 L282.341892,-120.578 L284.167896,-125.378 L285.083735,-127.784 L286.039796,-130.134 L287.946246,-134.868 C288.574853,-136.465 289.25245,-137.98 289.904778,-139.545 L289.904778,-139.545 C290.561748,-141.103 291.211498,-142.681 291.852998,-144.283 L291.852998,-144.283 L291.496667,-145 Z" id="Fill-1" transform="translate(286.554000, 23.446000) rotate(-90.000000) translate(-286.554000, -23.446000) "></path>
                <path d="M173.442667,-145 C171.802305,-142.495 170.162975,-139.956 168.588104,-137.271 L168.588104,-137.271 L166.276849,-133.129 C165.891125,-132.437 165.502822,-131.749 165.128442,-131.032 L165.128442,-131.032 L164.036758,-128.829 L161.846687,-124.408 C161.144338,-122.882 160.469835,-121.307 159.779347,-119.754 L159.779347,-119.754 L158.755217,-117.403 L157.787811,-114.956 C157.147342,-113.317 156.500171,-111.685 155.886002,-110.001 L155.886002,-110.001 C153.44686,-103.242 151.302168,-96.005 149.598895,-88.319 L149.598895,-88.319 C147.88015,-80.655 146.67605,-72.449 146.216583,-64.047 L146.216583,-64.047 C146.064975,-61.447 146.001547,-58.829 146,-56.216 L146,-56.216 L146,-56.052 C146.000516,-54.506 146.023205,-52.962 146.061365,-51.424 L146.061365,-51.424 C146.150061,-49.325 146.22174,-47.235 146.404289,-45.164 L146.404289,-45.164 L146.639952,-42.063 C146.721429,-41.032 146.862208,-40.016 146.9705,-38.997 L146.9705,-38.997 C147.876541,-30.835 149.410158,-23.077 151.263493,-15.739 L151.263493,-15.739 C155.023278,-1.067 160.155789,11.891 165.182072,24.77 L165.182072,24.77 L168.963,34.372 L170.822523,39.174 C171.441848,40.766 172.067878,42.351 172.665545,43.961 L172.665545,43.961 C175.087669,50.363 177.417488,56.799 179.385303,63.537 L179.385303,63.537 C179.867975,65.228 180.324347,66.939 180.783813,68.644 L180.783813,68.644 C181.191196,70.389 181.641381,72.102 182.014729,73.863 L182.014729,73.863 L182.570627,76.509 L182.845481,77.831 L183.080113,79.178 C183.394159,80.972 183.726769,82.753 183.952635,84.589 L183.952635,84.589 C184.96903,91.863 185.524412,99.341 185.504301,106.885 L185.504301,106.885 C185.526475,114.422 185.018019,121.978 184.081554,129.412 L184.081554,129.412 C183.812887,131.255 183.597851,133.13 183.288446,134.957 L183.288446,134.957 C182.965633,136.777 182.667573,138.617 182.326197,140.432 L182.326197,140.432 L181.235544,145.85 L179.998441,151.18 L178.637059,156.426 C178.17192,158.169 177.663981,159.873 177.178215,161.605 L177.178215,161.605 C176.153569,165.007 175.091279,168.391 173.969686,171.72 L173.969686,171.72 C171.717219,178.363 169.258997,184.806 166.714657,191.201 L166.714657,191.201 L167.085428,191.892 C170.287252,186.678 173.291058,180.971 176.062295,174.805 L176.062295,174.805 C176.739376,173.24 177.446366,171.712 178.101789,170.103 L178.101789,170.103 C178.747413,168.478 179.411087,166.875 180.031444,165.205 L180.031444,165.205 C180.63994,163.52 181.27061,161.858 181.863636,160.141 L181.863636,160.141 C182.442739,158.406 183.009981,156.652 183.56691,154.883 L183.56691,154.883 L185.140234,149.443 L186.564012,143.821 C186.998726,141.908 187.390639,139.949 187.804726,138.009 L187.804726,138.009 C188.206952,136.059 188.515841,134.033 188.874751,132.041 L188.874751,132.041 C190.188691,123.992 190.923527,115.499 190.993143,106.949 L190.993143,106.949 C191.074104,98.406 190.437762,89.781 189.102164,81.631 L189.102164,81.631 C187.782552,73.47 185.864757,65.767 183.558144,58.714 L183.558144,58.714 C181.260813,51.64 178.652014,45.096 175.881809,38.952 L175.881809,38.952 C174.502378,35.866 173.077053,32.893 171.634711,29.966 L171.634711,29.966 L167.322122,21.227 C165.901438,18.306 164.464768,15.415 163.107512,12.406 L163.107512,12.406 C161.73427,9.422 160.398157,6.375 159.160021,3.194 L159.160021,3.194 C156.651263,-3.113 154.413235,-9.855 152.765138,-17.103 L152.765138,-17.103 C151.111884,-24.342 150.109413,-32.075 149.774224,-39.826 L149.774224,-39.826 C149.447286,-47.587 149.683981,-55.344 150.45904,-62.859 L150.45904,-62.859 C151.194908,-70.386 152.341769,-77.742 153.820724,-84.916 L153.820724,-84.916 C155.323916,-92.071 157.158687,-99.023 159.237888,-105.76 L159.237888,-105.76 C159.758204,-107.444 160.330087,-109.072 160.862264,-110.75 L160.862264,-110.75 L161.67703,-113.25 L162.550068,-115.683 L164.287892,-120.578 L166.113896,-125.378 L167.029735,-127.784 L167.985796,-130.134 L169.892246,-134.868 C170.520853,-136.465 171.19845,-137.98 171.850778,-139.545 L171.850778,-139.545 C172.507748,-141.103 173.157498,-142.681 173.798998,-144.283 L173.798998,-144.283 L173.442667,-145 Z" id="Fill-1复制-2" transform="translate(168.500000, 23.446000) rotate(-90.000000) translate(-168.500000, -23.446000) "></path>
            </g>
            <g id="编组-2复制-3" transform="translate(1787.500000, 288.000000) scale(-1, 1) translate(-1787.500000, -288.000000) translate(1560.000000, 265.000000)" fill="url(#linearGradient-2)">
                <path d="M291.496667,-145 C289.856305,-142.495 288.216975,-139.956 286.642104,-137.271 L286.642104,-137.271 L284.330849,-133.129 C283.945125,-132.437 283.556822,-131.749 283.182442,-131.032 L283.182442,-131.032 L282.090758,-128.829 L279.900687,-124.408 C279.198338,-122.882 278.523835,-121.307 277.833347,-119.754 L277.833347,-119.754 L276.809217,-117.403 L275.841811,-114.956 C275.201342,-113.317 274.554171,-111.685 273.940002,-110.001 L273.940002,-110.001 C271.50086,-103.242 269.356168,-96.005 267.652895,-88.319 L267.652895,-88.319 C265.93415,-80.655 264.73005,-72.449 264.270583,-64.047 L264.270583,-64.047 C264.118975,-61.447 264.055547,-58.829 264.054,-56.216 L264.054,-56.216 L264.054,-56.052 C264.054516,-54.506 264.077205,-52.962 264.115365,-51.424 L264.115365,-51.424 C264.204061,-49.325 264.27574,-47.235 264.458289,-45.164 L264.458289,-45.164 L264.693952,-42.063 C264.775429,-41.032 264.916208,-40.016 265.0245,-38.997 L265.0245,-38.997 C265.930541,-30.835 267.464158,-23.077 269.317493,-15.739 L269.317493,-15.739 C273.077278,-1.067 278.209789,11.891 283.236072,24.77 L283.236072,24.77 L287.017,34.372 L288.876523,39.174 C289.495848,40.766 290.121878,42.351 290.719545,43.961 L290.719545,43.961 C293.141669,50.363 295.471488,56.799 297.439303,63.537 L297.439303,63.537 C297.921975,65.228 298.378347,66.939 298.837813,68.644 L298.837813,68.644 C299.245196,70.389 299.695381,72.102 300.068729,73.863 L300.068729,73.863 L300.624627,76.509 L300.899481,77.831 L301.134113,79.178 C301.448159,80.972 301.780769,82.753 302.006635,84.589 L302.006635,84.589 C303.02303,91.863 303.578412,99.341 303.558301,106.885 L303.558301,106.885 C303.580475,114.422 303.072019,121.978 302.135554,129.412 L302.135554,129.412 C301.866887,131.255 301.651851,133.13 301.342446,134.957 L301.342446,134.957 C301.019633,136.777 300.721573,138.617 300.380197,140.432 L300.380197,140.432 L299.289544,145.85 L298.052441,151.18 L296.691059,156.426 C296.22592,158.169 295.717981,159.873 295.232215,161.605 L295.232215,161.605 C294.207569,165.007 293.145279,168.391 292.023686,171.72 L292.023686,171.72 C289.771219,178.363 287.312997,184.806 284.768657,191.201 L284.768657,191.201 L285.139428,191.892 C288.341252,186.678 291.345058,180.971 294.116295,174.805 L294.116295,174.805 C294.793376,173.24 295.500366,171.712 296.155789,170.103 L296.155789,170.103 C296.801413,168.478 297.465087,166.875 298.085444,165.205 L298.085444,165.205 C298.69394,163.52 299.32461,161.858 299.917636,160.141 L299.917636,160.141 C300.496739,158.406 301.063981,156.652 301.62091,154.883 L301.62091,154.883 L303.194234,149.443 L304.618012,143.821 C305.052726,141.908 305.444639,139.949 305.858726,138.009 L305.858726,138.009 C306.260952,136.059 306.569841,134.033 306.928751,132.041 L306.928751,132.041 C308.242691,123.992 308.977527,115.499 309.047143,106.949 L309.047143,106.949 C309.128104,98.406 308.491762,89.781 307.156164,81.631 L307.156164,81.631 C305.836552,73.47 303.918757,65.767 301.612144,58.714 L301.612144,58.714 C299.314813,51.64 296.706014,45.096 293.935809,38.952 L293.935809,38.952 C292.556378,35.866 291.131053,32.893 289.688711,29.966 L289.688711,29.966 L285.376122,21.227 C283.955438,18.306 282.518768,15.415 281.161512,12.406 L281.161512,12.406 C279.78827,9.422 278.452157,6.375 277.214021,3.194 L277.214021,3.194 C274.705263,-3.113 272.467235,-9.855 270.819138,-17.103 L270.819138,-17.103 C269.165884,-24.342 268.163413,-32.075 267.828224,-39.826 L267.828224,-39.826 C267.501286,-47.587 267.737981,-55.344 268.51304,-62.859 L268.51304,-62.859 C269.248908,-70.386 270.395769,-77.742 271.874724,-84.916 L271.874724,-84.916 C273.377916,-92.071 275.212687,-99.023 277.291888,-105.76 L277.291888,-105.76 C277.812204,-107.444 278.384087,-109.072 278.916264,-110.75 L278.916264,-110.75 L279.73103,-113.25 L280.604068,-115.683 L282.341892,-120.578 L284.167896,-125.378 L285.083735,-127.784 L286.039796,-130.134 L287.946246,-134.868 C288.574853,-136.465 289.25245,-137.98 289.904778,-139.545 L289.904778,-139.545 C290.561748,-141.103 291.211498,-142.681 291.852998,-144.283 L291.852998,-144.283 L291.496667,-145 Z" id="Fill-1" transform="translate(286.554000, 23.446000) rotate(-90.000000) translate(-286.554000, -23.446000) "></path>
                <path d="M173.442667,-145 C171.802305,-142.495 170.162975,-139.956 168.588104,-137.271 L168.588104,-137.271 L166.276849,-133.129 C165.891125,-132.437 165.502822,-131.749 165.128442,-131.032 L165.128442,-131.032 L164.036758,-128.829 L161.846687,-124.408 C161.144338,-122.882 160.469835,-121.307 159.779347,-119.754 L159.779347,-119.754 L158.755217,-117.403 L157.787811,-114.956 C157.147342,-113.317 156.500171,-111.685 155.886002,-110.001 L155.886002,-110.001 C153.44686,-103.242 151.302168,-96.005 149.598895,-88.319 L149.598895,-88.319 C147.88015,-80.655 146.67605,-72.449 146.216583,-64.047 L146.216583,-64.047 C146.064975,-61.447 146.001547,-58.829 146,-56.216 L146,-56.216 L146,-56.052 C146.000516,-54.506 146.023205,-52.962 146.061365,-51.424 L146.061365,-51.424 C146.150061,-49.325 146.22174,-47.235 146.404289,-45.164 L146.404289,-45.164 L146.639952,-42.063 C146.721429,-41.032 146.862208,-40.016 146.9705,-38.997 L146.9705,-38.997 C147.876541,-30.835 149.410158,-23.077 151.263493,-15.739 L151.263493,-15.739 C155.023278,-1.067 160.155789,11.891 165.182072,24.77 L165.182072,24.77 L168.963,34.372 L170.822523,39.174 C171.441848,40.766 172.067878,42.351 172.665545,43.961 L172.665545,43.961 C175.087669,50.363 177.417488,56.799 179.385303,63.537 L179.385303,63.537 C179.867975,65.228 180.324347,66.939 180.783813,68.644 L180.783813,68.644 C181.191196,70.389 181.641381,72.102 182.014729,73.863 L182.014729,73.863 L182.570627,76.509 L182.845481,77.831 L183.080113,79.178 C183.394159,80.972 183.726769,82.753 183.952635,84.589 L183.952635,84.589 C184.96903,91.863 185.524412,99.341 185.504301,106.885 L185.504301,106.885 C185.526475,114.422 185.018019,121.978 184.081554,129.412 L184.081554,129.412 C183.812887,131.255 183.597851,133.13 183.288446,134.957 L183.288446,134.957 C182.965633,136.777 182.667573,138.617 182.326197,140.432 L182.326197,140.432 L181.235544,145.85 L179.998441,151.18 L178.637059,156.426 C178.17192,158.169 177.663981,159.873 177.178215,161.605 L177.178215,161.605 C176.153569,165.007 175.091279,168.391 173.969686,171.72 L173.969686,171.72 C171.717219,178.363 169.258997,184.806 166.714657,191.201 L166.714657,191.201 L167.085428,191.892 C170.287252,186.678 173.291058,180.971 176.062295,174.805 L176.062295,174.805 C176.739376,173.24 177.446366,171.712 178.101789,170.103 L178.101789,170.103 C178.747413,168.478 179.411087,166.875 180.031444,165.205 L180.031444,165.205 C180.63994,163.52 181.27061,161.858 181.863636,160.141 L181.863636,160.141 C182.442739,158.406 183.009981,156.652 183.56691,154.883 L183.56691,154.883 L185.140234,149.443 L186.564012,143.821 C186.998726,141.908 187.390639,139.949 187.804726,138.009 L187.804726,138.009 C188.206952,136.059 188.515841,134.033 188.874751,132.041 L188.874751,132.041 C190.188691,123.992 190.923527,115.499 190.993143,106.949 L190.993143,106.949 C191.074104,98.406 190.437762,89.781 189.102164,81.631 L189.102164,81.631 C187.782552,73.47 185.864757,65.767 183.558144,58.714 L183.558144,58.714 C181.260813,51.64 178.652014,45.096 175.881809,38.952 L175.881809,38.952 C174.502378,35.866 173.077053,32.893 171.634711,29.966 L171.634711,29.966 L167.322122,21.227 C165.901438,18.306 164.464768,15.415 163.107512,12.406 L163.107512,12.406 C161.73427,9.422 160.398157,6.375 159.160021,3.194 L159.160021,3.194 C156.651263,-3.113 154.413235,-9.855 152.765138,-17.103 L152.765138,-17.103 C151.111884,-24.342 150.109413,-32.075 149.774224,-39.826 L149.774224,-39.826 C149.447286,-47.587 149.683981,-55.344 150.45904,-62.859 L150.45904,-62.859 C151.194908,-70.386 152.341769,-77.742 153.820724,-84.916 L153.820724,-84.916 C155.323916,-92.071 157.158687,-99.023 159.237888,-105.76 L159.237888,-105.76 C159.758204,-107.444 160.330087,-109.072 160.862264,-110.75 L160.862264,-110.75 L161.67703,-113.25 L162.550068,-115.683 L164.287892,-120.578 L166.113896,-125.378 L167.029735,-127.784 L167.985796,-130.134 L169.892246,-134.868 C170.520853,-136.465 171.19845,-137.98 171.850778,-139.545 L171.850778,-139.545 C172.507748,-141.103 173.157498,-142.681 173.798998,-144.283 L173.798998,-144.283 L173.442667,-145 Z" id="Fill-1复制-2" transform="translate(168.500000, 23.446000) rotate(-90.000000) translate(-168.500000, -23.446000) "></path>
            </g>
        </g>
    </g>
</svg>