<?xml version="1.0" encoding="UTF-8"?>
<svg width="3000px" height="460px" viewBox="0 0 3000 460" version="1.1" xmlns="http://www.w3.org/2000/svg" xmlns:xlink="http://www.w3.org/1999/xlink">
    <!-- Generator: Sketch 54.1 (76490) - https://sketchapp.com -->
    <title>编组 37</title>
    <desc>Created with Sketch.</desc>
    <defs>
        <radialGradient cx="50%" cy="44.2592221%" fx="50%" fy="44.2592221%" r="180.192244%" gradientTransform="translate(0.500000,0.442592),scale(0.153333,1.000000),translate(-0.500000,-0.442592)" id="radialGradient-1">
            <stop stop-color="#003897" offset="0%"></stop>
            <stop stop-color="#002C78" offset="100%"></stop>
        </radialGradient>
        <linearGradient x1="17.8128309%" y1="15.3632453%" x2="82.0109172%" y2="88.3483594%" id="linearGradient-2">
            <stop stop-color="#003795" offset="0%"></stop>
            <stop stop-color="#002970" offset="100%"></stop>
        </linearGradient>
        <linearGradient x1="100%" y1="43.2232473%" x2="0%" y2="43.2232473%" id="linearGradient-3">
            <stop stop-color="#136FFF" stop-opacity="0" offset="0%"></stop>
            <stop stop-color="#01F5FF" offset="47.6476282%"></stop>
            <stop stop-color="#136FFF" stop-opacity="0" offset="100%"></stop>
        </linearGradient>
        <linearGradient x1="17.7531131%" y1="15.3632453%" x2="82.0703079%" y2="88.3483594%" id="linearGradient-4">
            <stop stop-color="#003795" offset="0%"></stop>
            <stop stop-color="#002970" offset="100%"></stop>
        </linearGradient>
        <linearGradient x1="100%" y1="43.2232473%" x2="0%" y2="43.2232473%" id="linearGradient-5">
            <stop stop-color="#136FFF" stop-opacity="0" offset="0%"></stop>
            <stop stop-color="#01F5FF" offset="47.6476282%"></stop>
            <stop stop-color="#136FFF" stop-opacity="0" offset="100%"></stop>
        </linearGradient>
    </defs>
    <g id="页面1" stroke="none" stroke-width="1" fill="none" fill-rule="evenodd">
        <g id="编组-37">
            <rect id="矩形复制-10" fill="url(#radialGradient-1)" x="0" y="0" width="3000" height="460"></rect>
            <g id="编组-3复制-2" transform="translate(1992.000000, 270.000000)">
                <ellipse id="椭圆形" fill="url(#linearGradient-2)" transform="translate(67.060700, 65.000000) rotate(-27.000000) translate(-67.060700, -65.000000) " cx="67.0607003" cy="65" rx="48.0879343" ry="48.132523"></ellipse>
                <path d="M-0.946928137,62.7316771 C-1.37903113,62.8960707 -1.60240964,63.0640077 -1.60240964,63.2347112 C-1.60240964,65.2290728 28.8880777,66.8458223 66.5,66.8458223 C104.111922,66.8458223 134.60241,65.2290728 134.60241,63.2347112 C134.60241,63.0640077 134.379031,62.8960707 133.946928,62.7316771 C136.959382,63.2621565 138.608434,63.8374269 138.608434,64.4384149 C138.608434,67.0975637 106.324388,69.2532297 66.5,69.2532297 C26.6756117,69.2532297 -5.60843373,67.0975637 -5.60843373,64.4384149 C-5.60843373,63.8374269 -3.95938187,63.2621565 -0.946928137,62.7316771 Z M66.1492296,59.623647 C66.2660837,59.6236157 66.3830074,59.6236001 66.5,59.6236001 C66.6169926,59.6236001 66.7339163,59.6236157 66.8507704,59.623647 C66.7338903,59.6236187 66.6169777,59.6236001 66.5,59.6236001 C66.3830223,59.6236001 66.2661097,59.6236187 66.1492627,59.6236558 Z" id="形状结合" fill="url(#linearGradient-3)" transform="translate(66.500000, 64.438415) rotate(-27.000000) translate(-66.500000, -64.438415) "></path>
            </g>
            <g id="编组-3复制-3" transform="translate(1032.792188, 227.890838) rotate(49.000000) translate(-1032.792188, -227.890838) translate(991.292188, 187.390838)">
                <circle id="椭圆形" fill="url(#linearGradient-4)" transform="translate(41.849911, 40.500000) rotate(-27.000000) translate(-41.849911, -40.500000) " cx="41.8499107" cy="40.5" r="30"></circle>
                <path d="M-0.590940116,39.0866603 C-0.860598376,39.1890902 -1,39.2937279 -1,39.4000893 C-1,40.64273 18.0278981,41.6500893 41.5,41.6500893 C64.9721019,41.6500893 84,40.64273 84,39.4000893 C84,39.2937279 83.8605984,39.1890902 83.5909401,39.0866603 C85.4708924,39.4171898 86.5,39.7756275 86.5,40.1500893 C86.5,41.8069435 66.3528137,43.1500893 41.5,43.1500893 C16.6471863,43.1500893 -3.5,41.8069435 -3.5,40.1500893 C-3.5,39.7756275 -2.47089244,39.4171898 -0.590940116,39.0866603 Z M41.2810982,37.1501185 C41.3540222,37.150099 41.4269896,37.1500893 41.5,37.1500893 C41.5730104,37.1500893 41.6459778,37.150099 41.7189018,37.1501185 C41.6459616,37.1501009 41.5730011,37.1500893 41.5,37.1500893 C41.4269989,37.1500893 41.3540384,37.1501009 41.2811188,37.150124 Z" id="形状结合" fill="url(#linearGradient-5)" transform="translate(41.500000, 40.150089) rotate(-27.000000) translate(-41.500000, -40.150089) "></path>
            </g>
        </g>
    </g>
</svg>