<?xml version="1.0" encoding="UTF-8"?>
<svg width="3000px" height="460px" viewBox="0 0 3000 460" version="1.1" xmlns="http://www.w3.org/2000/svg" xmlns:xlink="http://www.w3.org/1999/xlink">
    <!-- Generator: Sketch 54.1 (76490) - https://sketchapp.com -->
    <title>编组 27</title>
    <desc>Created with Sketch.</desc>
    <defs>
        <radialGradient cx="50%" cy="44.2592221%" fx="50%" fy="44.2592221%" r="179.045907%" gradientTransform="translate(0.500000,0.442592),scale(0.153333,1.000000),translate(-0.500000,-0.442592)" id="radialGradient-1">
            <stop stop-color="#003897" offset="0%"></stop>
            <stop stop-color="#002C78" offset="100%"></stop>
        </radialGradient>
        <rect id="path-2" x="0" y="0" width="1200" height="380"></rect>
        <linearGradient x1="50%" y1="38.2840176%" x2="50.4685142%" y2="56.7633444%" id="linearGradient-4">
            <stop stop-color="#003692" offset="0%"></stop>
            <stop stop-color="#002C78" offset="48.1735642%"></stop>
            <stop stop-color="#00348D" offset="100%"></stop>
        </linearGradient>
        <linearGradient x1="0%" y1="50%" x2="100%" y2="50%" id="linearGradient-5">
            <stop stop-color="#00358F" offset="0%"></stop>
            <stop stop-color="#002A71" offset="100%"></stop>
        </linearGradient>
        <linearGradient x1="0%" y1="50%" x2="100%" y2="50%" id="linearGradient-6">
            <stop stop-color="#003795" offset="0%"></stop>
            <stop stop-color="#002B72" offset="100%"></stop>
        </linearGradient>
        <linearGradient x1="100%" y1="48.2589406%" x2="0%" y2="49.3328165%" id="linearGradient-7">
            <stop stop-color="#136FFF" stop-opacity="0" offset="0%"></stop>
            <stop stop-color="#01F5FF" offset="47.6476282%"></stop>
            <stop stop-color="#136FFF" stop-opacity="0" offset="100%"></stop>
        </linearGradient>
        <linearGradient x1="0%" y1="50%" x2="100%" y2="50%" id="linearGradient-8">
            <stop stop-color="#00358F" offset="0%"></stop>
            <stop stop-color="#002A71" offset="100%"></stop>
        </linearGradient>
        <linearGradient x1="0%" y1="50%" x2="100%" y2="50%" id="linearGradient-9">
            <stop stop-color="#003795" offset="0%"></stop>
            <stop stop-color="#002B72" offset="100%"></stop>
        </linearGradient>
        <linearGradient x1="100%" y1="48.2716259%" x2="0%" y2="49.3376776%" id="linearGradient-10">
            <stop stop-color="#136FFF" stop-opacity="0" offset="0%"></stop>
            <stop stop-color="#01F5FF" offset="47.6476282%"></stop>
            <stop stop-color="#136FFF" stop-opacity="0" offset="100%"></stop>
        </linearGradient>
    </defs>
    <g id="页面1" stroke="none" stroke-width="1" fill="none" fill-rule="evenodd">
        <g id="编组-27">
            <rect id="矩形复制-10" fill="url(#radialGradient-1)" x="0" y="0" width="3000" height="460"></rect>
            <g id="蒙版复制" transform="translate(900.000000, 80.000000)">
                <mask id="mask-3" fill="white">
                    <use xlink:href="#path-2"></use>
                </mask>
                <g id="蒙版"></g>
                <path d="M598.510211,-107 L597.768289,-106.563777 L573.183584,-92.1116444 L572.440781,-91.6749815 L546.975016,-76.7051917 L546.232213,-76.2685288 L546.232653,-76.2685288 L521.606999,-61.7930661 L520.864196,-61.3564032 L495.969953,-46.7224742 L495.227591,-46.2858113 L468.713888,-30.7002036 L467.971525,-30.2639809 L443.617102,-15.9469845 L442.874299,-15.5107618 L416.89161,-0.236804702 L416.148807,0.199417999 L391.545169,14.6629957 L390.802366,15.0996586 L365.154312,30.1768534 L364.411509,30.6135162 L339.580231,45.2095895 L338.837428,45.6462524 L313.004884,60.8317324 L312.262522,61.2683953 L312.262962,61.2683953 L286.179442,76.6013372 L286.179001,76.6013372 L285.436199,77.0380001 L285.436639,77.0380001 L263.705142,89.8125904 L233.742932,107.425687 L208.730686,122.128725 L207.987883,122.565388 L183.358706,137.043492 L182.616344,137.480155 L156.691775,152.719337 L155.948972,153.156 L135.896818,164.943257 L130.545291,168.089255 L104.496995,183.401508 L103.754193,183.838171 L79.1562781,198.297787 L78.4139156,198.73445 L66.6796558,205.632139 L33.8633564,224.922338 L27.3850764,228.731253 L26.6422735,229.167916 L0.742802859,244.392573 L0,244.829236 L105.179476,305.537262 L118.663527,313.319721 L132.517879,321.31655 L156.870981,335.372958 L165.608052,340.41571 L183.661639,350.835754 L186.254184,352.332381 L209.151182,365.548036 L209.151182,365.548036 L235.77232,380.913111 L261.432702,395.724435 L262.179028,396.154935 L272.292507,401.99222 L296.021249,415.688116 L313.911042,426.013961 L314.656487,426.444021 L326.052588,433.021696 L362.614164,454.124574 L366.30176,456.252865 L375.643816,461.645124 L392.815022,471.556315 L394.920585,472.771224 L418.279907,486.254071 L419.026233,486.684571 L445.129567,501.751201 L445.875011,502.182142 L445.875892,502.182142 L470.342594,516.304137 L506.996635,537.460277 L523.482279,546.975302 L549.713744,562.115884 L575.297952,576.882748 L589.538456,585.101871 L600.743023,591.5695 L601.488908,592 L602.231711,591.563337 L607.38686,588.533108 L631.406207,574.413314 L653.329238,561.526037 L654.072041,561.089374 L660.285255,557.437164 L705.985903,530.572272 L732.034199,515.260019 L732.777002,514.823797 L751.846385,503.613621 L758.845551,499.499658 L784.104811,484.650919 L791.54649,480.276807 L809.47635,469.736593 L809.477231,469.736593 L828.920437,458.306325 L835.23184,454.596452 L835.974202,454.159789 L839.42359,452.1323 L862.258944,438.708878 L886.925547,424.208765 L905.976437,413.009594 L913.75143,408.43916 L929.903759,398.944383 L940.326776,392.817017 L966.64234,377.347618 L984.99798,366.557819 L999.509715,358.027046 L1017.63816,347.370182 L1018.38052,346.93396 L1044.36321,331.660443 L1045.10557,331.22378 L1051.74676,327.320225 L1070.2028,316.471001 L1078.73864,311.452459 L1200,240.170324 L1185.48078,231.790975 L1174.55493,225.484453 L1147.47851,209.856148 L1122.73882,195.577007 L1121.99293,195.146067 L1096.98245,180.710661 L1096.23656,180.280161 L1069.59957,164.905841 L1065.24843,162.39459 L1044.3861,150.352466 L1043.63978,149.922406 L1017.53644,134.855336 L1002.02168,125.900225 L992.071559,120.15758 L952.346357,97.2288165 L939.865772,90.0251995 L939.119886,89.5946991 L924.5628,81.1929002 L894.531901,63.8588803 L886.217088,59.0595502 L885.470763,58.6290499 L870.802718,50.1629841 L833.536646,28.6533753 L808.408159,14.1497408 L784.765276,0.503145209 L782.918616,-0.56254113 L764.118703,-11.413966 L756.127518,-16.0262177 L740.033309,-25.3154283 L730.606274,-30.7565472 L729.859948,-31.1874877 L717.173739,-38.5090742 L702.944242,-46.7224742 L678.035029,-61.0997758 L677.288704,-61.5302761 L651.338157,-76.5088695 L650.592272,-76.93981 L626.022978,-91.1203492 L611.605029,-99.4424747 L599.256977,-106.5695 L598.511532,-107 L598.510211,-107 Z M573.929909,-91.6811441 L598.514614,-106.132837 L624.53429,-91.1146268 L599.949585,-76.6624938 L573.929909,-91.6811441 Z M547.720901,-76.2746914 L573.187106,-91.2444812 L599.207222,-76.2262711 L573.741457,-61.2564814 L547.720901,-76.2746914 Z M600.69547,-76.2319935 L625.280175,-90.6841265 L649.849469,-76.5031471 L625.264324,-62.0510142 L600.69547,-76.2319935 Z M626.010649,-61.620954 L650.595354,-76.0726468 L676.546781,-61.0940534 L651.961636,-46.6419204 L626.010649,-61.620954 Z M522.353325,-61.3625658 L546.978979,-75.8380285 L572.998654,-60.8198185 L548.37344,-46.3439156 L522.353325,-61.3625658 Z M574.487342,-60.8255409 L599.953107,-75.7957708 L624.522401,-61.6143513 L599.056196,-46.6445615 L574.487342,-60.8255409 Z M599.802081,-46.2140612 L625.268286,-61.1842911 L651.219273,-46.2056977 L625.753508,-31.2354678 L599.802081,-46.2140612 Z M496.716279,-46.2919738 L521.610522,-60.9259029 L547.630637,-45.9072527 L522.736394,-31.2733236 L496.716279,-46.2919738 Z M652.707521,-46.2114201 L677.292226,-60.663553 L702.20144,-46.2862514 L677.616294,-31.8341185 L652.707521,-46.2114201 Z M549.118885,-45.9134153 L573.744539,-60.388878 L598.313393,-46.2078986 L573.688179,-31.7324359 L549.118885,-45.9134153 Z M678.362619,-31.4036182 L702.947765,-45.8557511 L729.117146,-30.751265 L704.532,-16.299132 L678.362619,-31.4036182 Z M469.460213,-30.2692631 L495.973916,-45.855311 L521.993591,-30.8371009 L495.479888,-15.2510531 L469.460213,-30.2692631 Z M574.434504,-31.3019356 L599.059718,-45.7778385 L625.010705,-30.7992451 L600.385491,-16.3233422 L574.434504,-31.3019356 Z M626.499393,-30.8049675 L651.965158,-45.7747572 L676.873932,-31.3974556 L651.408166,-16.4276659 L626.499393,-30.8049675 Z M523.482279,-30.8428233 L548.376522,-45.4771926 L572.945817,-31.295773 L548.051574,-16.661844 L523.482279,-30.8428233 Z M652.154492,-15.9971656 L677.620257,-30.9669553 L703.789638,-15.8624692 L678.323872,-0.8926794 L652.154492,-15.9971656 Z M548.797899,-16.2313436 L573.692142,-30.8657129 L599.643129,-15.8866793 L574.748445,-1.25275021 L548.797899,-16.2313436 Z M496.226214,-14.8205528 L522.739476,-30.4066006 L547.308771,-16.2256212 L520.795508,-0.639573393 L496.226214,-14.8205528 Z M601.131376,-15.8928419 L625.75659,-30.3683046 L650.665363,-15.9914432 L626.04059,-1.51554027 L601.131376,-15.8928419 Z M705.278325,-15.8681915 L729.863471,-30.3203245 L754.63883,-16.0200552 L730.054565,-1.56792221 L705.278325,-15.8681915 Z M444.362547,-15.5164842 L468.71741,-29.8326002 L494.737085,-14.8143902 L470.382662,-0.498274213 L444.362547,-15.5164842 Z M521.541393,-0.209073088 L548.055096,-15.7946808 L574.005643,-0.816527506 L547.49194,14.7695204 L521.541393,-0.209073088 Z M730.80045,-1.13742191 L755.385156,-15.5895548 L781.429929,-0.556818733 L756.844783,13.8953142 L730.80045,-1.13742191 Z M626.786475,-1.08503997 L651.411689,-15.5605027 L677.581069,-0.456016514 L652.955856,14.0194462 L626.786475,-1.08503997 Z M575.49433,-0.822249903 L600.389454,-15.456179 L625.298227,-1.07887739 L600.403104,13.5550517 L575.49433,-0.822249903 Z M679.070198,-0.461738911 L704.535523,-15.4319688 L729.311763,-1.13125932 L703.845997,13.8385304 L679.070198,-0.461738911 Z M417.637495,0.193695603 L443.620184,-15.0798214 L469.6403,-0.0616113267 L443.657611,15.2119056 L417.637495,0.193695603 Z M471.128988,-0.0673337233 L495.483411,-14.3843301 L520.052705,-0.203350691 L495.697842,14.1136457 L471.128988,-0.0673337233 Z M704.591442,14.2685905 L730.057648,-0.700759019 L756.10242,14.3319771 L730.636655,29.3017668 L704.591442,14.2685905 Z M601.149429,13.985552 L626.044112,-0.64837708 L652.213933,14.4561091 L627.31881,29.0900382 L601.149429,13.985552 Z M548.238265,15.2000207 L574.751528,-0.385587016 L599.660301,13.9912744 L573.147038,29.5773223 L548.238265,15.2000207 Z M757.590668,14.3258145 L782.175814,-0.125878243 L806.919471,14.1554632 L782.334765,28.6071559 L757.590668,14.3258145 Z M653.702181,14.4503867 L678.327395,-0.025516209 L703.103635,14.2747531 L678.477981,28.750656 L653.702181,14.4503867 Z M496.444167,14.544146 L520.79859,0.227589799 L546.749137,15.2061832 L522.395154,29.5222992 L496.444167,14.544146 Z M444.403496,15.6428461 L470.386185,0.368888978 L494.955479,14.5498684 L468.97279,29.8233853 L444.403496,15.6428461 Z M392.290613,15.093496 L416.895132,0.630358489 L442.915248,15.6485685 L418.311169,30.1121463 L392.290613,15.093496 Z M573.893364,30.0078226 L600.406626,14.4222149 L626.576007,29.5267011 L600.062744,45.1127489 L573.893364,30.0078226 Z M783.08021,29.0380964 L807.665356,14.5855233 L832.794284,29.089598 L808.209579,43.5417309 L783.08021,29.0380964 Z M679.223866,29.1811563 L703.84952,14.7052534 L729.893852,29.7384297 L705.268639,44.2138924 L679.223866,29.1811563 Z M731.38254,29.7322672 L756.848306,14.7624774 L781.591963,29.0438188 L756.126197,44.0136086 L731.38254,29.7322672 Z M628.065135,29.5209787 L652.959378,14.8866094 L677.735618,29.1868787 L652.840935,43.821248 L628.065135,29.5209787 Z M469.719115,30.2538856 L495.701364,14.9808088 L521.652791,29.9589621 L495.669662,45.2329192 L469.719115,30.2538856 Z M365.899757,30.6073537 L391.548251,15.5301589 L417.568366,30.548369 L391.919872,45.6255637 L365.899757,30.6073537 Z M523.141039,29.9532397 L547.495462,15.6362434 L572.404235,30.013545 L548.050253,44.3301011 L523.141039,29.9532397 Z M419.057054,30.5426466 L443.661133,16.0790688 L468.230427,30.2600482 L443.625468,44.7236259 L419.057054,30.5426466 Z M756.872082,44.4445491 L782.337848,29.4743191 L807.466776,43.9783938 L782.001011,58.9481836 L756.872082,44.4445491 Z M808.955464,43.9726714 L833.540169,29.5205385 L859.200992,44.3318619 L834.616286,58.7835546 L808.955464,43.9726714 Z M653.58682,44.2517483 L678.481063,29.6178192 L704.526276,44.6505553 L679.632033,59.2844844 L653.58682,44.2517483 Z M600.80907,45.542809 L627.322332,29.9572014 L652.098572,44.2574707 L625.584869,59.8435186 L600.80907,45.542809 Z M706.014964,44.6443928 L730.639737,30.1684899 L755.383394,44.4502714 L730.758181,58.9257342 L706.014964,44.6443928 Z M496.415547,45.6634195 L522.398676,30.3899026 L547.30789,44.766764 L521.325201,60.0407211 L496.415547,45.6634195 Z M548.796138,44.7610416 L573.150561,30.4440453 L599.319941,45.5489716 L574.965959,59.8655278 L548.796138,44.7610416 Z M444.371793,45.1541262 L468.976312,30.6905485 L494.927299,45.6691419 L470.32278,60.1327197 L444.371793,45.1541262 Z M392.666198,46.0565042 L418.314692,30.9788693 L442.883546,45.1598486 L417.235052,60.2370434 L392.666198,46.0565042 Z M340.326556,45.6409701 L365.157394,31.0435764 L391.17751,46.0622266 L366.346231,60.6591802 L340.326556,45.6409701 Z M782.746896,59.3791241 L808.212661,44.4088941 L833.873484,59.2202175 L808.407718,74.1900072 L782.746896,59.3791241 Z M626.330754,60.2740189 L652.844457,44.6884112 L678.88923,59.7207071 L652.375527,75.3063148 L626.330754,60.2740189 Z M835.362612,59.2140549 L859.947317,44.761922 L884.72796,59.0657128 L860.142815,73.5174055 L835.362612,59.2140549 Z M731.504066,59.3562345 L756.129279,44.8807718 L781.258648,59.3848464 L756.633434,73.8603092 L731.504066,59.3562345 Z M680.377918,59.7149847 L705.272601,45.0810556 L730.015818,59.362397 L705.121575,73.9967663 L680.377918,59.7149847 Z M522.071086,60.4707813 L548.053775,45.1972643 L574.223156,60.3021907 L548.240907,75.5757076 L522.071086,60.4707813 Z M417.981377,60.6675437 L443.629431,45.5907891 L469.580418,60.5689424 L443.931924,75.6465773 L417.981377,60.6675437 Z M575.711844,60.2960281 L600.066267,45.9794719 L624.842066,60.2797413 L600.487643,74.5967376 L575.711844,60.2960281 Z M313.751209,61.2622327 L339.583753,46.0767527 L365.603869,61.0954029 L339.771765,76.2804428 L313.751209,61.2622327 Z M471.069106,60.56322 L495.673184,46.1000824 L520.582838,60.477384 L495.977879,74.9405216 L471.069106,60.56322 Z M367.092116,61.0892403 L391.923395,46.4927269 L416.492249,60.6737063 L391.66141,75.2706599 L367.092116,61.0892403 Z M860.88914,73.948346 L885.474285,59.4962131 L911.678891,74.6209477 L887.093745,89.0730807 L860.88914,73.948346 Z M809.153603,74.6205076 L834.619809,59.6507178 L859.401333,73.9540684 L833.934687,88.9238582 L809.153603,74.6205076 Z M705.86702,74.4268264 L730.761703,59.7928974 L755.890631,74.296972 L730.995948,88.9309011 L705.86702,74.4268264 Z M757.379319,74.2912497 L782.004093,59.8157869 L807.665356,74.6266701 L783.039702,89.1021328 L757.379319,74.2912497 Z M653.121412,75.7376955 L679.635555,60.1516476 L704.378772,74.432989 L677.865069,90.0190369 L653.121412,75.7376955 Z M601.233528,75.0272379 L625.588392,60.7106817 L651.633165,75.7429777 L627.278301,90.0595338 L601.233528,75.0272379 Z M548.986792,76.0066481 L574.969481,60.732691 L599.74484,75.0329603 L573.762591,90.3064773 L548.986792,76.0066481 Z M496.723764,75.3710219 L521.328283,60.9074442 L547.498104,76.0123705 L522.893585,90.4755081 L496.723764,75.3710219 Z M444.678249,76.0770776 L470.326743,60.9998829 L495.235516,75.3771845 L469.587022,90.4543792 L444.678249,76.0770776 Z M392.407295,75.7011602 L417.238574,61.1042066 L443.189561,76.0828 L418.358723,90.6797536 L392.407295,75.7011602 Z M340.51721,76.7113833 L366.349754,61.5259032 L390.919048,75.7068826 L365.086504,90.8923626 L340.51721,76.7113833 Z M286.924886,77.0318375 L313.008407,61.6988956 L339.028962,76.7171057 L312.945442,92.0500475 L286.924886,77.0318375 Z M834.681012,89.3543585 L860.146337,74.3845687 L886.351383,89.5097436 L860.885617,104.479533 L834.681012,89.3543585 Z M731.741833,89.3618416 L756.636957,74.7274724 L782.297339,89.5387957 L757.403096,104.172725 L731.741833,89.3618416 Z M678.610954,90.4495372 L705.125098,74.8634893 L730.253585,89.367564 L703.739883,104.953612 L678.610954,90.4495372 Z M887.840071,89.5040212 L912.425216,75.0518882 L938.377524,90.031362 L913.792378,104.483495 L887.840071,89.5040212 Z M783.786027,89.5326332 L808.411681,75.0571704 L833.191884,89.3605211 L808.56711,103.835984 L783.786027,89.5326332 Z M574.508477,90.7369776 L600.491166,75.4634606 L626.535939,90.4961967 L600.553249,105.769714 L574.508477,90.7369776 Z M470.332907,90.8844393 L495.981842,75.8076848 L522.151222,90.9121709 L496.502728,105.989366 L470.332907,90.8844393 Z M365.832389,91.3228629 L391.665373,76.137823 L417.61592,91.1164165 L391.783817,106.301456 L365.832389,91.3228629 Z M628.024627,90.4904743 L652.37905,76.1739182 L677.122707,90.4552596 L652.767843,104.771816 L628.024627,90.4904743 Z M523.63947,90.9064485 L548.243989,76.4428708 L573.019789,90.7431401 L548.41571,105.206718 L523.63947,90.9064485 Z M419.104167,91.1098137 L443.935446,76.5137405 L468.84466,90.8906019 L444.013821,105.487115 L419.104167,91.1098137 Z M313.691327,92.480988 L339.775288,77.1480462 L364.343702,91.3290255 L338.260181,106.661967 L313.691327,92.480988 Z M261.515921,91.9686134 L286.182964,77.4685004 L312.20308,92.4867104 L287.536037,106.986823 L261.515921,91.9686134 Z M809.312995,104.266924 L833.938209,89.7910214 L860.142815,104.916196 L835.518041,119.391659 L809.312995,104.266924 Z M704.485768,105.384112 L730.999471,89.7980643 L756.660293,104.609388 L730.14703,120.195436 L704.485768,105.384112 Z M861.631943,104.910034 L887.097268,89.9402439 L913.049576,104.919277 L887.584251,119.889507 L861.631943,104.910034 Z M758.148981,104.603225 L783.043224,89.969296 L807.824748,104.272647 L782.930505,118.906576 L758.148981,104.603225 Z M914.538704,104.913995 L939.123409,90.4618623 L964.070049,104.860293 L939.484463,119.312426 L914.538704,104.913995 Z M653.514169,105.202316 L677.868592,90.8857599 L702.99752,105.389835 L678.642657,119.706831 L653.514169,105.202316 Z M601.299575,106.200654 L627.281824,90.9271372 L652.02504,105.208479 L626.042792,120.481996 L601.299575,106.200654 Z M549.161595,105.637218 L573.765674,91.1736405 L599.810447,106.206377 L575.205927,120.669954 L549.161595,105.637218 Z M444.759266,105.917616 L469.590104,91.3211022 L495.759925,106.426029 L470.929087,121.022542 L444.759266,105.917616 Z M497.248613,106.420306 L522.897107,91.3426712 L547.672907,105.642941 L522.024853,120.720135 L497.248613,106.420306 Z M392.529702,106.731957 L418.361805,91.5464766 L443.271018,105.923778 L417.438915,121.109258 L392.529702,106.731957 Z M339.006066,107.092468 L365.090027,91.7590857 L391.041014,106.737679 L364.957494,122.070621 L339.006066,107.092468 Z M235.23162,107.419525 L260.773559,92.4048361 L286.793674,107.423046 L261.251295,122.437735 L235.23162,107.419525 Z M288.281922,107.417324 L312.948524,92.9176509 L337.517819,107.09819 L312.851216,121.597863 L288.281922,107.417324 Z M783.67639,119.337076 L808.570633,104.703147 L834.775679,119.828322 L809.880555,134.462251 L783.67639,119.337076 Z M730.892475,120.625496 L757.406619,105.039888 L782.187702,119.343239 L755.673999,134.929286 L730.892475,120.625496 Z M940.230788,119.743366 L964.815934,105.291233 L990.583752,120.163742 L965.998606,134.615875 L940.230788,119.743366 Z M836.263926,119.822599 L860.88914,105.346697 L886.841448,120.32617 L862.216674,134.802073 L836.263926,119.822599 Z M888.330136,120.320008 L913.795901,105.350218 L938.742101,119.748648 L913.276335,134.718878 L888.330136,120.320008 Z M626.788677,120.912496 L652.771366,105.638979 L677.900294,120.143054 L651.917605,135.416571 L626.788677,120.912496 Z M679.388542,120.136891 L703.742965,105.820775 L729.404228,120.631658 L705.049805,134.948214 L679.388542,120.136891 Z M522.770738,121.150636 L548.419232,106.073881 L574.463565,121.106617 L548.815071,136.183812 L522.770738,121.150636 Z M418.18436,121.539759 L444.017344,106.354279 L470.186724,121.459205 L444.354621,136.644245 L418.18436,121.539759 Z M575.952253,121.100455 L600.556772,106.637317 L625.299989,120.918658 L600.69547,135.382236 L575.952253,121.100455 Z M471.674972,121.453042 L496.50581,106.856529 L521.28205,121.156798 L496.450772,135.753312 L471.674972,121.453042 Z M365.703379,122.501561 L391.787339,107.16862 L416.696112,121.545481 L390.612152,136.878423 L365.703379,122.501561 Z M313.597541,122.029244 L338.263704,107.529131 L364.215131,122.507284 L339.548528,137.007397 L313.597541,122.029244 Z M261.99762,122.868675 L287.539119,107.853987 L312.108413,122.034526 L286.566474,137.049655 L261.99762,122.868675 Z M209.47613,122.559666 L234.489257,107.856188 L260.508932,122.874398 L235.496246,137.577876 L209.47613,122.559666 Z M756.419884,135.359787 L782.933587,119.773739 L809.138633,134.898914 L782.624489,150.484521 L756.419884,135.359787 Z M914.022661,135.149379 L939.488426,120.179589 L965.255804,135.052098 L939.790479,150.022328 L914.022661,135.149379 Z M810.62688,134.893191 L835.521564,120.258822 L861.473871,135.238296 L836.579628,149.872225 L810.62688,134.893191 Z M652.66349,135.847511 L678.646179,120.573554 L704.307002,135.384437 L678.324312,150.658394 L652.66349,135.847511 Z M966.744491,135.046376 L991.329637,120.594243 L1016.0482,134.861498 L991.463491,149.313631 L966.744491,135.046376 Z M862.962559,135.232574 L887.587773,120.756671 L912.533532,135.155101 L887.909199,149.630564 L862.962559,135.232574 Z M705.79569,135.378715 L730.150553,121.062159 L754.931196,135.365509 L730.576773,149.682065 L705.79569,135.378715 Z M601.441795,135.812296 L626.046314,121.349159 L651.174802,135.853233 L626.570723,150.316371 L601.441795,135.812296 Z M549.561396,136.613872 L575.20989,121.537117 L599.953107,135.818899 L574.305053,150.895654 L549.561396,136.613872 Z M497.197097,136.184252 L522.028376,121.587299 L548.072708,136.620475 L523.24187,151.216548 L497.197097,136.184252 Z M445.100066,137.075185 L470.932609,121.889705 L495.708409,136.189975 L469.876306,151.375455 L445.100066,137.075185 Z M391.358477,137.309363 L417.441997,121.976421 L443.611818,137.080908 L417.527858,152.413849 L391.358477,137.309363 Z M287.312359,137.480155 L312.854738,122.465466 L338.805725,137.44406 L313.263786,152.458748 L287.312359,137.480155 Z M340.294413,137.437897 L364.960576,122.938224 L389.869789,137.315086 L365.203187,151.815199 L340.294413,137.437897 Z M184.105032,137.473992 L208.733768,122.996329 L234.753883,138.014539 L210.125147,152.492202 L184.105032,137.473992 Z M236.242571,138.008376 L261.254817,123.305338 L285.824112,137.486317 L260.810985,152.189796 L236.242571,138.008376 Z M992.209376,149.744131 L1016.79408,135.291998 L1042.89742,150.358629 L1018.31315,164.810762 L992.209376,149.744131 Z M783.370815,150.915022 L809.884518,135.329414 L835.836826,150.308888 L809.323123,165.894496 L783.370815,150.915022 Z M940.535923,150.452828 L966.001689,135.483038 L990.720688,149.749854 L965.255363,164.720084 L940.535923,150.452828 Z M888.654644,150.061944 L913.279858,135.586042 L939.047676,150.458551 L914.422462,164.934453 L888.654644,150.061944 Z M837.325073,150.302725 L862.219756,135.668796 L887.166396,150.067227 L862.271273,164.701156 L837.325073,150.302725 Z M731.323098,150.112566 L755.677521,135.79645 L781.882127,150.921184 L757.527704,165.23774 L731.323098,150.112566 Z M679.070638,151.088454 L705.052887,135.815378 L729.83397,150.118288 L703.851721,165.392245 L679.070638,151.088454 Z M575.051379,151.326154 L600.698992,136.248959 L625.82792,150.753034 L600.179867,165.830229 L575.051379,151.326154 Z M627.316608,150.747312 L651.921127,136.283734 L677.58151,151.095057 L652.977871,165.558195 L627.316608,150.747312 Z M470.621751,151.805515 L496.454294,136.620475 L522.499507,151.653211 L496.666964,166.838691 L470.621751,151.805515 Z M523.987755,151.647489 L548.818593,137.050535 L573.56225,151.332317 L548.731412,165.92883 L523.987755,151.647489 Z M418.274183,152.84435 L444.357703,137.511848 L469.133943,151.812117 L443.050423,167.145059 L418.274183,152.84435 Z M365.949512,152.245699 L390.615674,137.745586 L416.785495,152.850512 L392.118892,167.350625 L365.949512,152.245699 Z M314.009671,152.889249 L339.55161,137.87456 L364.460824,152.251862 L338.918445,167.26655 L314.009671,152.889249 Z M157.43766,153.149838 L183.362229,137.910215 L209.382344,152.928865 L183.457776,168.168048 L157.43766,153.149838 Z M261.55731,152.619856 L286.569556,137.916378 L312.520984,152.894971 L287.508297,167.598449 L261.55731,152.619856 Z M210.871032,152.922703 L235.499768,138.445039 L260.069063,152.626018 L235.439886,167.104122 L210.871032,152.922703 Z M966.000368,165.150584 L991.466573,150.180794 L1017.57035,165.247425 L992.103702,180.217214 L966.000368,165.150584 Z M863.017598,165.132536 L887.912281,150.498167 L913.679659,165.370676 L888.785416,180.004605 L863.017598,165.132536 Z M704.597606,165.822746 L730.580295,150.549229 L756.784901,165.674403 L730.802652,180.94748 L704.597606,165.822746 Z M810.069008,166.324996 L836.582711,150.739388 L861.529351,165.137819 L835.015207,180.723866 L810.069008,166.324996 Z M1019.0586,165.241262 L1043.6433,150.789129 L1068.11132,164.911564 L1043.52618,179.363257 L1019.0586,165.241262 Z M915.168787,165.364954 L939.793561,150.889051 L964.51256,165.156306 L939.886906,179.632209 L915.168787,165.364954 Z M600.925752,166.260729 L626.574246,151.183534 L652.235068,165.994858 L626.586574,181.072052 L600.925752,166.260729 Z M758.274029,165.668241 L782.628012,151.351685 L808.58032,166.331158 L784.226337,180.647715 L758.274029,165.668241 Z M653.723316,165.988695 L678.327835,151.525117 L703.108918,165.828908 L678.504399,180.292046 L653.723316,165.988695 Z M549.477297,166.35933 L574.308576,151.762817 L599.437064,166.266892 L574.606225,180.863405 L549.477297,166.35933 Z M497.412849,167.269191 L523.245392,152.083711 L547.989049,166.365493 L522.156066,181.550533 L497.412849,167.269191 Z M443.795868,167.57556 L469.879828,152.242178 L495.924161,167.275354 L469.840641,182.608296 L443.795868,167.57556 Z M339.66477,167.697051 L365.206709,152.681922 L391.37609,167.786848 L365.834151,182.801537 L339.66477,167.697051 Z M236.185331,167.534622 L260.814507,153.056519 L286.765935,168.035112 L262.137198,182.512776 L236.185331,167.534622 Z M392.865218,167.781126 L417.53138,153.281013 L442.30762,167.581282 L417.641018,182.081395 L392.865218,167.781126 Z M288.254622,168.02895 L313.266869,153.325911 L338.175642,167.703213 L313.163396,182.406251 L288.254622,168.02895 Z M184.203661,168.598988 L210.128229,153.359366 L234.697083,167.540785 L208.772955,182.779968 L184.203661,168.598988 Z M132.033979,168.083532 L156.695298,153.586501 L182.715413,168.604711 L158.054094,183.101742 L132.033979,168.083532 Z M1044.27206,179.794637 L1068.85721,165.342504 L1095.4942,180.716824 L1070.90905,195.168956 L1044.27206,179.794637 Z M835.761533,181.154367 L862.274795,165.568319 L888.042613,180.441268 L861.529351,196.027316 L835.761533,181.154367 Z M940.632791,180.06271 L965.258445,165.587247 L991.36222,180.653877 L966.736566,195.12934 L940.632791,180.06271 Z M992.850027,180.647715 L1018.31623,165.677925 L1042.78338,179.79992 L1017.31805,194.769709 L992.850027,180.647715 Z M889.531301,180.435546 L914.425984,165.801617 L939.144544,180.068432 L914.24986,194.702801 L889.531301,180.435546 Z M731.548537,181.378421 L757.531226,166.104904 L783.483534,181.083937 L757.501285,196.357894 L731.548537,181.378421 Z M679.250725,180.722546 L703.854803,166.259408 L730.059849,181.384143 L705.45533,195.847721 L679.250725,180.722546 Z M627.332459,181.502553 L652.980953,166.425358 L677.762037,180.728709 L652.113983,195.805903 L627.332459,181.502553 Z M575.35211,181.294345 L600.183389,166.697392 L625.844212,181.508275 L601.012933,196.105229 L575.35211,181.294345 Z M784.972222,181.078215 L809.326645,166.761659 L834.272845,181.160529 L809.918422,195.477086 L784.972222,181.078215 Z M522.902391,181.981473 L548.734494,166.795993 L573.863422,181.300068 L548.031319,196.485108 L522.902391,181.981473 Z M470.586526,183.038796 L496.670486,167.705414 L521.413703,181.987196 L495.330183,197.320578 L470.586526,183.038796 Z M209.519281,183.210468 L235.443409,167.970845 L261.394396,182.949439 L235.469827,198.188621 L209.519281,183.210468 Z M418.386462,182.512336 L443.053505,168.011782 L469.098278,183.044518 L444.431675,197.544631 L418.386462,182.512336 Z M313.909281,182.837192 L338.921967,168.133713 L365.091348,183.2382 L340.079102,197.941678 L313.909281,182.837192 Z M366.580476,183.232477 L392.122415,168.217789 L416.898215,182.517618 L391.356276,197.532747 L366.580476,183.232477 Z M262.882643,182.943716 L287.51182,168.465612 L312.421033,182.842474 L287.791857,197.321018 L262.882643,182.943716 Z M105.243321,183.832008 L131.291176,168.519755 L157.311291,183.538405 L131.262996,198.850218 L105.243321,183.832008 Z M158.799979,183.532243 L183.460858,169.035211 L208.030152,183.21619 L183.369274,197.713222 L158.799979,183.532243 Z M1018.06349,195.20065 L1043.5297,180.23042 L1070.16625,195.605179 L1044.70092,210.574969 L1018.06349,195.20065 Z M914.995746,195.133302 L939.889989,180.499372 L965.993763,195.566003 L941.09952,210.199932 L914.995746,195.133302 Z M862.274795,196.457376 L888.788939,180.872209 L913.507498,195.139024 L886.994235,210.725072 L862.274795,196.457376 Z M967.482011,195.55984 L992.107224,181.083937 L1016.57525,195.206372 L991.950034,209.681835 L967.482011,195.55984 Z M1071.65538,195.599017 L1096.24008,181.146884 L1121.25013,195.58273 L1096.66542,210.034863 L1071.65538,195.599017 Z M652.859428,196.236404 L678.507922,181.159209 L704.712967,196.283943 L679.064473,211.361578 L652.859428,196.236404 Z M758.24717,196.788395 L784.229859,181.514438 L809.176059,195.913748 L783.19337,211.186825 L758.24717,196.788395 Z M810.664747,195.907146 L835.01873,181.59103 L860.786548,196.463979 L836.432125,210.780095 L810.664747,195.907146 Z M548.777645,196.916048 L574.609307,181.730568 L600.27057,196.541451 L574.437587,211.726931 L548.777645,196.916048 Z M706.201655,196.278661 L730.805734,181.815084 L756.758482,196.794117 L732.153963,211.258135 L706.201655,196.278661 Z M601.759258,196.535729 L626.590097,181.939216 L651.37118,196.242566 L626.539901,210.83908 L601.759258,196.535729 Z M496.076068,197.751078 L522.160028,182.417696 L547.288516,196.921771 L521.204996,212.255153 L496.076068,197.751078 Z M392.102161,197.962807 L417.6441,182.948118 L443.688873,197.981294 L418.146934,212.995983 L392.102161,197.962807 Z M288.537742,197.751518 L313.166478,183.273414 L339.336739,198.378341 L314.707563,212.856004 L288.537742,197.751518 Z M236.215712,198.619562 L262.140281,183.379939 L287.049054,197.7568 L261.124926,212.996863 L236.215712,198.619562 Z M445.17756,197.975132 L469.843723,183.475019 L494.58738,197.7568 L469.921218,212.256473 L445.17756,197.975132 Z M184.115159,198.144163 L208.776478,183.646691 L234.727465,198.625284 L210.066146,213.122316 L184.115159,198.144163 Z M340.824987,198.372178 L365.837673,183.6687 L390.613913,197.968969 L365.601227,212.672447 L340.824987,198.372178 Z M132.008881,199.281599 L158.057176,183.968906 L182.626471,198.149445 L156.578175,213.462138 L132.008881,199.281599 Z M79.9021631,198.728287 L104.500518,184.268671 L130.520633,199.286881 L105.922279,213.746497 L79.9021631,198.728287 Z M887.73968,211.155132 L914.253383,195.569964 L940.356717,210.636155 L913.843014,226.222202 L887.73968,211.155132 Z M992.696359,210.113216 L1017.32113,195.637313 L1043.95812,211.011632 L1019.33291,225.487535 L992.696359,210.113216 Z M941.845405,210.630432 L966.739648,195.996503 L991.207231,210.118498 L966.312988,224.752427 L941.845405,210.630432 Z M1097.41087,210.465363 L1121.99601,196.01323 L1146.73571,210.292811 L1122.151,224.744504 L1097.41087,210.465363 Z M1045.44681,211.005469 L1070.91258,196.035679 L1095.92306,210.471526 L1070.45685,225.440875 L1045.44681,211.005469 Z M783.939255,211.617766 L809.921944,196.343809 L835.689762,211.216758 L809.707073,226.490715 L783.939255,211.617766 Z M627.286227,211.27002 L652.117065,196.673066 L678.321671,211.797801 L653.490832,226.394755 L627.286227,211.27002 Z M679.810359,211.792079 L705.458852,196.714884 L731.41116,211.694358 L705.763107,226.771553 L679.810359,211.792079 Z M837.17801,211.210595 L861.532433,196.894039 L886.251432,211.161735 L861.896569,225.477851 L837.17801,211.210595 Z M575.183912,212.157432 L601.016455,196.972392 L625.797539,211.275742 L599.965436,226.460782 L575.183912,212.157432 Z M732.900289,211.688195 L757.504367,197.225058 L782.451007,211.623488 L757.846488,226.087066 L732.900289,211.688195 Z M521.950881,212.685213 L548.034842,197.352711 L573.696105,212.163594 L547.612144,227.496536 L521.950881,212.685213 Z M470.667103,212.687414 L495.333265,198.187741 L520.462634,212.691375 L495.796031,227.191488 L470.667103,212.687414 Z M261.871251,213.427364 L287.795379,198.188181 L313.96476,213.292667 L288.040632,228.53185 L261.871251,213.427364 Z M366.347112,213.102948 L391.359798,198.39947 L417.404131,213.432646 L392.391444,228.135684 L366.347112,213.102948 Z M418.892819,213.426483 L444.435198,198.411795 L469.178415,212.693136 L443.636476,227.707825 L418.892819,213.426483 Z M157.32362,213.892638 L183.372796,198.580385 L209.323343,213.558979 L183.275047,228.871232 L157.32362,213.892638 Z M315.453448,213.286505 L340.082184,198.808841 L364.858424,213.10911 L340.229247,227.587214 L315.453448,213.286505 Z M210.81159,213.552816 L235.472909,199.056225 L260.382563,213.433086 L235.721684,227.930118 L210.81159,213.552816 Z M53.3290183,214.34911 L79.1598006,199.16495 L105.179916,214.18316 L79.3491339,229.36776 L53.3290183,214.34911 Z M106.668604,214.177438 L131.266519,199.717822 L155.835813,213.898801 L131.237458,228.357977 L106.668604,214.177438 Z M967.058873,225.183367 L991.953556,210.549438 L1018.59055,225.924198 L993.695863,240.558127 L967.058873,225.183367 Z M1122.89733,225.175444 L1147.48159,210.723311 L1173.06624,225.490176 L1148.4811,239.942309 L1122.89733,225.175444 Z M1071.20274,225.871816 L1096.66895,210.901586 L1121.40864,225.181166 L1095.94287,240.150956 L1071.20274,225.871816 Z M914.589339,226.652703 L941.102602,211.067095 L965.570625,225.18909 L939.056922,240.775138 L914.589339,226.652703 Z M1020.07923,225.917595 L1044.70445,211.442132 L1069.71449,225.877538 L1045.08928,240.353441 L1020.07923,225.917595 Z M862.642894,225.908351 L886.997317,211.591795 L913.100652,226.658865 L888.745788,240.974981 L862.642894,225.908351 Z M810.452958,226.920775 L836.435647,211.647258 L861.153766,225.914514 L835.171517,241.188471 L810.452958,226.920775 Z M600.71088,226.891283 L626.543864,211.705803 L652.74847,226.831418 L626.916366,242.016457 L600.71088,226.891283 Z M758.592373,226.518006 L783.196892,212.054429 L808.96427,226.926938 L784.359751,241.390515 L758.592373,226.518006 Z M706.508992,227.202053 L732.157486,212.124858 L757.103685,226.523289 L731.455191,241.600483 L706.508992,227.202053 Z M654.237158,226.825255 L679.067556,212.228742 L705.020304,227.207775 L680.189025,241.804729 L654.237158,226.825255 Z M548.358029,227.927477 L574.441109,212.594095 L599.222633,226.897445 L573.138672,242.230387 L548.358029,227.927477 Z M496.541476,227.621989 L521.208519,213.121876 L546.869341,227.932759 L522.202739,242.432872 L496.541476,227.621989 Z M444.382361,228.138765 L469.9243,213.124077 L495.053668,227.627711 L469.511289,242.6424 L444.382361,228.138765 Z M340.975573,228.017274 L365.604749,213.539611 L391.649082,228.572347 L367.020346,243.050451 L340.975573,228.017274 Z M288.786957,228.96279 L314.711085,213.723167 L339.487325,228.023877 L313.562757,243.262619 L288.786957,228.96279 Z M393.13777,228.566624 L418.150016,213.863146 L442.894113,228.144488 L417.881427,242.847966 L393.13777,228.566624 Z M236.467129,228.360618 L261.128448,213.863586 L287.298269,228.968513 L262.63695,243.465544 L236.467129,228.360618 Z M184.020932,229.302172 L210.069668,213.989479 L234.978882,228.36634 L208.929706,243.679034 L184.020932,229.302172 Z M131.983343,228.788917 L156.581698,214.329301 L182.532685,229.307455 L157.93477,243.767511 L131.983343,228.788917 Z M80.0950189,229.79826 L105.925801,214.61366 L130.495095,228.79464 L104.664313,243.97924 L80.0950189,229.79826 Z M28.1309614,229.161754 L52.5862154,214.785773 L78.606331,229.803983 L54.1510769,244.179964 L28.1309614,229.161754 Z M1096.68876,240.581897 L1122.15452,225.611667 L1147.73829,240.378531 L1122.27253,255.348321 L1096.68876,240.581897 Z M939.802367,241.205638 L966.316951,225.61959 L992.95306,240.994349 L966.439797,256.579957 L939.802367,241.205638 Z M1149.22742,240.372369 L1173.81257,225.920236 L1198.51131,240.176927 L1173.92617,254.62862 L1149.22742,240.372369 Z M1045.83516,240.783941 L1070.46038,226.308479 L1095.20007,240.587619 L1070.57486,255.063082 L1045.83516,240.783941 Z M835.917843,241.618971 L861.900091,226.345014 L888.003426,241.411644 L862.020736,256.685601 L835.917843,241.618971 Z M994.441748,240.988187 L1019.33643,226.354258 L1044.34648,240.790104 L1019.45223,255.424033 L994.441748,240.988187 Z M732.201076,242.031424 L757.850011,226.954229 L783.617388,241.826738 L757.968894,256.903933 L732.201076,242.031424 Z M889.492113,241.405922 L913.846537,227.088925 L938.31456,241.2118 L913.959696,255.528357 L889.492113,241.405922 Z M627.661811,242.446958 L653.494795,227.261918 L679.446663,242.241392 L653.614559,257.426432 L627.661811,242.446958 Z M573.884998,242.660887 L599.968518,227.327946 L626.173564,242.45312 L600.089603,257.786062 L573.884998,242.660887 Z M785.106076,241.821016 L809.710595,227.357438 L834.428714,241.624693 L809.824636,256.088271 L785.106076,241.821016 Z M680.93535,242.235229 L705.766189,227.638716 L730.712829,242.037146 L705.88199,256.6341 L680.93535,242.235229 Z M470.257174,243.07334 L495.799553,228.058211 L521.459936,242.869535 L495.917997,257.884223 L470.257174,243.07334 Z M522.949064,242.863812 L547.615667,228.363699 L572.39631,242.66661 L547.729707,257.166723 L522.949064,242.863812 Z M314.308202,243.69356 L340.23277,228.453937 L366.277543,243.486673 L340.353415,258.726296 L314.308202,243.69356 Z M418.627312,243.278466 L443.639998,228.574988 L468.768926,243.079063 L443.75624,257.782541 L418.627312,243.278466 Z M209.676031,244.109534 L235.724767,228.796841 L261.894588,243.902207 L235.845412,259.21402 L209.676031,244.109534 Z M367.76579,243.480951 L392.394967,229.002407 L417.138624,243.284188 L392.509888,257.762292 L367.76579,243.480951 Z M105.410198,244.40974 L131.240981,229.22514 L157.191967,244.203734 L131.361185,259.388333 L105.410198,244.40974 Z M263.382835,243.896045 L288.044154,229.399013 L312.819954,243.699282 L288.158635,258.196314 L263.382835,243.896045 Z M1.4891282,244.823073 L27.3885988,229.598416 L53.4087144,244.616627 L27.5088034,259.841283 L1.4891282,244.823073 Z M158.681096,244.198011 L183.278129,229.738395 L208.187343,244.115697 L183.589869,258.575313 L158.681096,244.198011 Z M54.896962,244.610904 L79.352216,230.234483 L103.92151,244.415902 L79.465816,258.791883 L54.896962,244.610904 Z M1123.01885,255.779262 L1148.48462,240.809032 L1173.18336,255.065283 L1147.71804,270.035072 L1123.01885,255.779262 Z M1071.32074,255.494022 L1095.9464,241.018119 L1121.53017,255.784984 L1096.90495,270.260887 L1071.32074,255.494022 Z M1020.19856,255.854533 L1045.0928,241.220164 L1069.8325,255.499745 L1044.93781,270.133674 L1020.19856,255.854533 Z M967.185682,257.010898 L993.699385,241.42485 L1018.70943,255.860256 L992.196167,271.446303 L967.185682,257.010898 Z M914.706022,255.958417 L939.060004,241.642301 L965.696994,257.01662 L941.343011,271.332736 L914.706022,255.958417 Z M862.766621,257.115661 L888.749751,241.842144 L913.216893,255.96502 L887.234644,271.238096 L862.766621,257.115661 Z M810.570961,256.518771 L835.17504,242.055194 L861.278374,257.122264 L836.673855,271.585402 L810.570961,256.518771 Z M758.714779,257.334873 L784.363273,242.257679 L809.081833,256.524494 L783.433779,271.602129 L758.714779,257.334873 Z M706.627875,257.0646 L731.458714,242.468087 L757.226091,257.340155 L732.395253,271.937109 L706.627875,257.0646 Z M654.360444,257.856932 L680.192548,242.671452 L705.139187,257.070763 L679.307084,272.255803 L654.360444,257.856932 Z M600.835928,258.216563 L626.919449,242.883621 L652.872197,257.863094 L626.788236,273.196036 L600.835928,258.216563 Z M548.476032,257.597663 L573.142195,243.09755 L599.347241,258.222725 L574.680638,272.722838 L548.476032,257.597663 Z M496.664322,258.314724 L522.206261,243.300035 L546.987344,257.603386 L521.444965,272.618074 L496.664322,258.314724 Z M444.502125,258.213041 L469.514371,243.510003 L495.175634,258.320886 L470.163388,273.024364 L444.502125,258.213041 Z M393.255332,258.192793 L417.884949,243.715129 L443.013437,258.219204 L418.384701,272.696867 L393.255332,258.192793 Z M341.09974,259.156796 L367.023428,243.917174 L391.767525,258.198955 L365.842957,273.438578 L341.09974,259.156796 Z M288.90452,258.626814 L313.565839,244.130223 L339.610612,259.162519 L314.949733,273.65955 L288.90452,258.626814 Z M236.591737,259.644961 L262.640473,244.332708 L287.416272,258.632537 L261.367537,273.94523 L236.591737,259.644961 Z M184.335754,259.005373 L208.933228,244.546197 L235.103049,259.650683 L210.505575,274.110299 L184.335754,259.005373 Z M132.10707,259.818834 L157.938293,244.634674 L182.847066,259.011976 L157.016724,274.196135 L132.10707,259.818834 Z M80.2121413,259.221944 L104.667836,244.846403 L130.618382,259.824556 L106.163128,274.200977 L80.2121413,259.221944 Z M28.2546885,260.272223 L54.1545994,245.047127 L78.7238937,259.228106 L52.8235425,274.453203 L28.2546885,260.272223 Z M1045.68414,270.564174 L1070.57838,255.930245 L1096.16215,270.69711 L1071.26791,285.331479 L1045.68414,270.564174 Z M1097.65128,270.690947 L1122.27649,256.215484 L1146.97524,270.471735 L1122.35002,284.947198 L1097.65128,270.690947 Z M992.942052,271.876804 L1019.45575,256.290756 L1044.19501,270.570337 L1017.68175,286.156384 L992.942052,271.876804 Z M887.98097,271.669037 L913.963219,256.39508 L940.600208,271.769399 L914.61796,287.043356 L887.98097,271.669037 Z M784.179664,272.032629 L809.828158,256.955434 L835.931492,272.022065 L810.282998,287.098819 L784.179664,272.032629 Z M942.088456,271.764117 L966.443319,257.44712 L991.453364,271.882966 L967.098501,286.199082 L942.088456,271.764117 Z M680.052969,272.686303 L705.885513,257.501263 L731.65289,272.373772 L705.820347,287.559252 L680.052969,272.686303 Z M837.41974,272.015902 L862.024699,257.552324 L886.491842,271.674759 L861.887763,286.137897 L837.41974,272.015902 Z M733.141138,272.367609 L757.972417,257.771536 L782.690976,272.037911 L757.860138,286.635305 L733.141138,272.367609 Z M522.19129,273.048575 L547.733229,258.033886 L573.938275,273.159061 L548.395896,288.173749 L522.19129,273.048575 Z M627.534562,273.626537 L653.617641,258.293595 L678.564281,272.692025 L652.480321,288.025407 L627.534562,273.626537 Z M366.588842,273.868638 L392.51341,258.629455 L417.641898,273.13353 L391.71733,288.372713 L366.588842,273.868638 Z M419.130586,273.127368 L443.759762,258.649704 L469.420585,273.460587 L444.791409,287.938691 L419.130586,273.127368 Z M575.426963,273.153338 L600.093126,258.653225 L626.045433,273.632259 L601.379271,288.132372 L575.426963,273.153338 Z M470.909273,273.454865 L495.921959,258.751387 L520.702162,273.054737 L495.689916,287.757775 L470.909273,273.454865 Z M262.113862,274.37573 L288.161717,259.063477 L314.20693,274.096213 L288.158195,289.408467 L262.113862,274.37573 Z M157.762169,274.626635 L183.592951,259.442036 L209.762772,274.546962 L183.93199,289.731122 L157.762169,274.626635 Z M315.695618,274.090051 L340.356937,259.593459 L365.100154,273.874801 L340.438835,288.371832 L315.695618,274.090051 Z M53.5698678,274.883703 L79.4697788,259.658606 L105.420766,274.6372 L79.5208547,289.861856 L53.5698678,274.883703 Z M211.25146,274.54124 L235.848934,260.081624 L260.625174,274.381893 L236.026819,288.841069 L211.25146,274.54124 Z M106.909013,274.631478 L131.364708,260.255496 L156.273921,274.632798 L131.817787,289.008779 L106.909013,274.631478 Z M1018.42763,286.586885 L1044.94133,271.000837 L1070.5251,285.768142 L1044.01184,301.35375 L1018.42763,286.586885 Z M1072.01379,285.761539 L1096.90847,271.12761 L1121.60766,285.383861 L1096.71298,300.01823 L1072.01379,285.761539 Z M862.633648,286.569277 L887.238167,272.105259 L913.875157,287.480019 L889.270638,301.943597 L862.633648,286.569277 Z M915.363404,287.473856 L941.346534,272.200339 L966.356578,286.635745 L940.373449,301.909262 L915.363404,287.473856 Z M967.844826,286.630023 L992.199249,272.313026 L1016.93894,286.593047 L992.58408,300.909163 L967.844826,286.630023 Z M811.029324,287.52976 L836.677818,272.452565 L861.14496,286.57456 L835.496906,301.651754 L811.029324,287.52976 Z M758.606023,287.065365 L783.437302,272.469292 L809.540636,287.535482 L784.709797,302.131995 L758.606023,287.065365 Z M706.566672,287.989752 L732.398335,272.804272 L757.117775,287.071968 L731.285232,302.257008 L706.566672,287.989752 Z M653.226646,288.455467 L679.310166,273.122966 L705.077984,287.995475 L678.994464,303.328417 L653.226646,288.455467 Z M496.435801,288.188716 L521.448488,273.485237 L547.653093,288.610412 L522.640847,303.31389 L496.435801,288.188716 Z M392.463215,288.803653 L418.387783,273.56403 L444.049046,288.375354 L418.124478,303.614536 L392.463215,288.803653 Z M549.142221,288.60425 L574.68416,273.590001 L600.636908,288.569035 L575.094529,303.583724 L549.142221,288.60425 Z M445.537734,288.369191 L470.16647,273.891528 L494.947554,288.194438 L470.318377,302.672542 L445.537734,288.369191 Z M602.125156,288.562872 L626.791759,274.0632 L651.737958,288.46207 L627.071356,302.962183 L602.125156,288.562872 Z M341.18516,288.802333 L365.846479,274.305301 L390.974967,288.809376 L366.313648,303.306407 L341.18516,288.802333 Z M288.90408,289.838967 L314.953256,274.526273 L339.696472,288.808055 L313.648177,304.120308 L288.90408,289.838967 Z M236.773145,289.271569 L261.371059,274.811953 L287.415832,289.845129 L262.817918,304.304745 L236.773145,289.271569 Z M184.677434,290.162062 L210.509097,274.977462 L235.284897,289.277732 L209.453674,304.462331 L184.677434,290.162062 Z M132.564112,289.439279 L157.019806,275.063298 L183.189627,290.167785 L158.733493,304.543766 L132.564112,289.439279 Z M80.2667398,290.293237 L106.16621,275.06814 L131.075424,289.445002 L105.175513,304.670099 L80.2667398,290.293237 Z M1044.75728,301.78425 L1071.27143,286.198202 L1095.97105,300.454453 L1069.45691,316.040061 L1044.75728,301.78425 Z M836.242791,302.082695 L861.890845,287.00506 L888.527835,302.379819 L862.879781,317.457014 L836.242791,302.082695 Z M993.330405,301.339664 L1017.68483,287.023107 L1043.26904,301.789972 L1018.91505,316.106528 L993.330405,301.339664 Z M941.119774,302.340203 L967.102023,287.066686 L991.841717,301.345826 L965.859028,316.619343 L941.119774,302.340203 Z M732.031117,302.687508 L757.86322,287.502028 L783.966994,302.568658 L758.134451,317.754138 L732.031117,302.687508 Z M890.016963,302.373657 L914.620601,287.910519 L939.631086,302.345925 L915.026567,316.809503 L890.016963,302.373657 Z M785.455682,302.562496 L810.286521,287.966423 L834.754103,302.088417 L809.923265,316.685371 L785.455682,302.562496 Z M679.740349,303.758917 L705.823869,288.426415 L730.542869,302.693231 L704.459349,318.026172 L679.740349,303.758917 Z M471.064262,303.103042 L495.693439,288.625379 L521.898484,303.750553 L497.269308,318.228217 L471.064262,303.103042 Z M418.870363,304.045037 L444.794931,288.805854 L469.575574,303.109205 L443.651887,318.348387 L418.870363,304.045037 Z M627.817681,303.392243 L652.484284,288.89213 L678.251661,303.765079 L653.585499,318.265193 L627.817681,303.392243 Z M575.840414,304.014224 L601.382793,288.999535 L626.329433,303.398406 L600.786614,318.413094 L575.840414,304.014224 Z M523.386732,303.743951 L548.399418,289.040913 L574.351726,304.020386 L549.33948,318.723424 L523.386732,303.743951 Z M314.394062,304.551249 L340.442357,289.238996 L365.570845,303.74307 L339.52299,319.054883 L314.394062,304.551249 Z M367.059974,303.736908 L391.720852,289.239876 L417.381675,304.051199 L392.720356,318.547791 L367.059974,303.736908 Z M210.199559,304.892832 L236.030782,289.708232 L262.075115,304.741408 L236.244773,319.925568 L210.199559,304.892832 Z M105.921838,305.100599 L131.821309,289.875502 L157.99113,304.980428 L132.091219,320.205085 L105.921838,305.100599 Z M263.564243,304.735246 L288.161277,290.27563 L312.905374,304.556971 L288.30746,319.016587 L263.564243,304.735246 Z M159.479818,304.974266 L183.935512,290.598285 L208.711312,304.898994 L184.256058,319.274535 L159.479818,304.974266 Z M966.605354,317.050284 L992.587602,301.776327 L1018.17225,316.543191 L992.189562,331.816708 L966.605354,317.050284 Z M1019.6605,316.537029 L1044.01536,302.220473 L1068.71455,316.476723 L1044.36013,330.79328 L1019.6605,316.537029 Z M810.66915,317.115871 L835.500429,302.518918 L862.136978,317.893677 L837.305699,332.49019 L810.66915,317.115871 Z M915.772452,317.240003 L940.376971,302.776425 L965.116666,317.056006 L940.512587,331.519144 L915.772452,317.240003 Z M863.625666,317.887514 L889.27416,302.81032 L914.284205,317.245726 L888.635711,332.32292 L863.625666,317.887514 Z M758.880776,318.184639 L784.712879,302.999159 L809.180902,317.121594 L783.347919,332.306633 L758.880776,318.184639 Z M705.205234,318.457113 L731.288754,303.124171 L757.392088,318.190801 L731.308128,333.523303 L705.205234,318.457113 Z M444.397772,318.778888 L470.3219,303.539705 L496.526505,318.66488 L470.602817,333.904062 L444.397772,318.778888 Z M601.532939,318.843595 L627.074878,303.828906 L652.842696,318.701415 L627.300757,333.716544 L601.532939,318.843595 Z M340.268435,319.485824 L366.317171,304.17313 L391.977993,318.984014 L365.929698,334.296707 L340.268435,319.485824 Z M498.015193,318.658717 L522.643929,304.180613 L548.596677,319.160087 L523.967501,333.637751 L498.015193,318.658717 Z M654.331384,318.695693 L678.997987,304.19558 L703.716546,318.462835 L679.049943,332.962948 L654.331384,318.695693 Z M550.085365,319.154365 L575.098052,304.450887 L600.044251,318.849317 L575.031565,333.553236 L550.085365,319.154365 Z M393.466681,318.978731 L418.128,304.4817 L442.909084,318.78505 L418.247765,333.281642 L393.466681,318.978731 Z M289.053345,319.447088 L313.651259,304.987471 L338.780187,319.491546 L314.182273,333.951162 L289.053345,319.447088 Z M236.990658,320.356068 L262.82144,305.171468 L287.564657,319.45325 L261.733874,334.63785 L236.990658,320.356068 Z M185.001943,319.705036 L209.456757,305.329495 L235.50197,320.362231 L211.046275,334.738212 L185.001943,319.705036 Z M132.837544,320.635585 L158.737015,305.410929 L183.513255,319.711198 L157.613784,334.936295 L132.837544,320.635585 Z M992.935888,332.247209 L1018.91814,316.973692 L1043.61732,331.229502 L1017.63463,346.503459 L992.935888,332.247209 Z M941.258472,331.950084 L965.862551,317.486506 L991.446759,332.253371 L966.842681,346.716949 L941.258472,331.950084 Z M784.094244,332.737574 L809.926787,317.552534 L836.563337,332.926853 L810.731234,348.111893 L784.094244,332.737574 Z M889.382036,332.753861 L915.03009,317.676226 L939.770224,331.955806 L914.12129,347.033001 L889.382036,332.753861 Z M838.052025,332.920691 L862.882863,318.324177 L887.893788,332.759583 L863.06251,347.356537 L838.052025,332.920691 Z M732.054013,333.954243 L758.137973,318.621302 L782.605556,332.743296 L756.522036,348.076678 L732.054013,333.954243 Z M679.795388,333.393449 L704.462871,318.893776 L730.566206,333.959966 L705.899162,348.460079 L679.795388,333.393449 Z M471.348702,334.335003 L497.27283,319.09494 L523.225138,334.074414 L497.30145,349.314037 L471.348702,334.335003 Z M628.046202,334.147044 L653.589021,319.132356 L678.30714,333.399611 L652.765642,348.4143 L628.046202,334.147044 Z M418.99365,333.712582 L443.654969,319.215551 L469.860014,334.340285 L445.198695,348.837757 L418.99365,333.712582 Z M575.77745,333.983296 L600.790136,319.280258 L626.557954,334.152767 L601.545268,348.856245 L575.77745,333.983296 Z M366.676023,334.727207 L392.723878,319.415394 L417.505402,333.718305 L391.456666,349.030998 L366.676023,334.727207 Z M524.713826,334.068691 L549.343003,319.590588 L574.289202,333.989458 L549.660026,348.467562 L524.713826,334.068691 Z M262.4802,335.06791 L288.310982,319.88375 L313.43991,334.387825 L287.608688,349.571985 L262.4802,335.06791 Z M314.928598,334.382103 L339.526072,319.922487 L365.186895,334.73337 L340.588981,349.192986 L314.928598,334.382103 Z M158.359669,335.366355 L184.25914,320.141698 L210.303913,335.174435 L184.404002,350.399531 L158.359669,335.366355 Z M211.792161,335.168712 L236.248295,320.792731 L260.991512,335.074513 L236.536258,349.450054 L211.792161,335.168712 Z M914.867615,347.463502 L940.516109,332.386307 L966.099878,347.153612 L940.451824,362.230366 L914.867615,347.463502 Z M967.588566,347.147009 L992.193085,332.683871 L1016.89227,346.940122 L992.287751,361.4037 L967.588566,347.147009 Z M757.268361,348.506738 L783.351441,333.174237 L809.988871,348.548556 L783.904911,363.881058 L757.268361,348.506738 Z M863.808395,347.787037 L888.639233,333.190083 L913.378487,347.469664 L888.548089,362.066618 L863.808395,347.787037 Z M811.477119,348.542393 L837.309222,333.356913 L862.319707,347.7932 L836.487163,362.977799 L811.477119,348.542393 Z M653.511086,348.8448 L679.053025,333.830112 L705.1568,348.896302 L679.614861,363.91143 L653.511086,348.8448 Z M392.202551,349.461058 L418.251287,334.148805 L444.456333,349.27398 L418.407157,364.586233 L392.202551,349.461058 Z M706.645047,348.890579 L731.31165,334.390466 L755.779233,348.513341 L731.11307,363.013014 L706.645047,348.890579 Z M550.406351,348.898062 L575.035528,334.419959 L600.802465,349.292908 L576.173729,363.770571 L550.406351,348.898062 Z M498.046455,349.744537 L523.971023,334.505354 L548.917223,348.903785 L522.993535,364.142967 L498.046455,349.744537 Z M602.291593,349.286745 L627.303839,334.583267 L652.022839,348.850522 L627.010152,363.554001 L602.291593,349.286745 Z M445.94458,349.268257 L470.605899,334.771226 L496.558648,349.750699 L471.897329,364.247291 L445.94458,349.268257 Z M288.355013,350.002925 L314.185795,334.818325 L339.846618,349.629649 L314.015395,364.814248 L288.355013,350.002925 Z M341.334866,349.623486 L365.93322,335.16387 L390.714304,349.467221 L366.116389,363.926837 L341.334866,349.623486 Z M237.281703,349.880554 L261.737397,335.504573 L286.865885,350.008648 L262.411071,364.384629 L237.281703,349.880554 Z M185.150327,350.830032 L211.049798,335.604935 L235.793455,349.886716 L209.893544,365.111373 L185.150327,350.830032 Z M941.197269,362.660867 L966.845763,347.583672 L991.544948,361.839923 L965.897335,376.917118 L941.197269,362.660867 Z M889.293974,362.496678 L914.124812,347.900164 L939.709021,362.667029 L914.878183,377.263543 L889.293974,362.496678 Z M837.233489,363.40874 L863.066032,348.22326 L887.805286,362.50284 L861.973183,377.68788 L837.233489,363.40874 Z M731.858956,363.443514 L756.525558,348.943401 L783.162548,364.317721 L758.495945,378.817834 L731.858956,363.443514 Z M784.651236,364.312438 L810.734316,348.979056 L835.74436,363.414462 L809.66084,378.747844 L784.651236,364.312438 Z M627.756478,363.984501 L652.768724,349.281463 L678.872498,364.348093 L653.859372,379.051131 L627.756478,363.984501 Z M680.360746,364.341931 L705.902685,349.327242 L730.370268,363.449237 L704.828329,378.463925 L680.360746,364.341931 Z M523.73942,364.573908 L549.663548,349.334285 L575.431366,364.207234 L549.507238,379.446417 L523.73942,364.573908 Z M419.153482,365.017173 L445.202218,349.70448 L471.154966,364.683954 L445.10579,379.996207 L419.153482,365.017173 Z M576.919614,364.201512 L601.54879,349.723408 L626.26735,363.990664 L601.638613,378.468327 L576.919614,364.201512 Z M366.862274,364.357337 L391.459749,349.897721 L417.664794,365.022896 L393.06732,379.482072 L366.862274,364.357337 Z M314.761721,365.244309 L340.592503,350.060149 L365.373586,364.3635 L339.542804,379.548099 L314.761721,365.244309 Z M472.642773,364.677791 L497.304533,350.1812 L522.251173,364.57963 L497.589853,379.077102 L472.642773,364.677791 Z M210.639429,365.542313 L236.53934,350.317217 L261.668268,364.820851 L235.768798,380.045948 L210.639429,365.542313 Z M263.156516,364.815569 L287.61221,350.439148 L313.273033,365.250471 L288.817779,379.626452 L263.156516,364.815569 Z M862.719068,378.118821 L888.551611,362.933341 L914.13538,377.700205 L888.303277,392.885245 L862.719068,378.118821 Z M915.624068,377.694043 L940.454906,363.097529 L965.154532,377.35334 L940.323254,391.950294 L915.624068,377.694043 Z M810.407166,379.178345 L836.490686,363.845403 L861.23082,378.124543 L835.14686,393.457485 L810.407166,379.178345 Z M705.573773,378.894866 L731.116593,363.880177 L757.753583,379.254496 L732.211203,394.269185 L705.573773,378.894866 Z M602.384498,378.899268 L627.013675,364.421164 L653.117009,379.487794 L628.488273,393.965898 L602.384498,378.899268 Z M550.253123,379.877357 L576.176811,364.637735 L600.896251,378.90499 L574.971683,394.144173 L550.253123,379.877357 Z M759.24183,379.248334 L783.908433,364.749101 L808.918478,379.184067 L784.251875,393.68418 L759.24183,379.248334 Z M654.605697,379.481632 L679.617943,364.778153 L704.085526,378.900588 L679.072839,393.604066 L654.605697,379.481632 Z M340.288689,379.97816 L366.119912,364.794 L392.324517,379.918735 L366.493735,395.103334 L340.288689,379.97816 Z M498.335739,379.507162 L522.996617,365.010571 L548.764435,379.88308 L524.103116,394.379671 L498.335739,379.507162 Z M445.852115,380.427148 L471.900411,365.114454 L496.847051,379.513325 L470.798315,394.825578 L445.852115,380.427148 Z M236.514242,380.476888 L262.414153,365.251792 L288.074976,380.063115 L262.175505,395.287772 L236.514242,380.476888 Z M393.813205,379.913452 L418.410679,365.453836 L444.362987,380.43287 L419.765513,394.892486 L393.813205,379.913452 Z M289.564104,380.056512 L314.018918,365.680972 L338.800442,379.984322 L314.344307,394.360303 L289.564104,380.056512 Z M889.049162,393.315746 L914.881705,378.130706 L939.580891,392.386957 L913.748347,407.571997 L889.049162,393.315746 Z M835.893185,393.887985 L861.976705,378.555044 L887.560914,393.321908 L861.476954,408.65485 L835.893185,393.887985 Z M679.819165,394.034567 L704.831411,379.331529 L731.468401,394.705848 L706.456154,409.408886 L679.819165,394.034567 Z M575.717568,394.575113 L601.641696,379.33549 L627.74547,394.402121 L601.820902,409.641743 L575.717568,394.575113 Z M784.9982,394.11468 L809.664363,379.614567 L834.404057,393.894148 L809.737895,408.393821 L784.9982,394.11468 Z M732.957088,394.699685 L758.499468,379.684997 L783.509512,394.120403 L757.967573,409.135091 L732.957088,394.699685 Z M629.234158,394.396398 L653.863334,379.918294 L678.330037,394.040729 L653.7013,408.518393 L629.234158,394.396398 Z M471.5442,395.256078 L497.592936,379.943825 L523.360754,394.816334 L497.312018,410.129028 L471.5442,395.256078 Z M524.849442,394.810612 L549.510761,380.31402 L574.22888,394.580836 L549.567561,409.077867 L524.849442,394.810612 Z M367.23962,395.534275 L393.070843,380.349675 L419.02315,395.328709 L393.191928,410.513749 L367.23962,395.534275 Z M315.090632,394.790803 L339.546327,380.414822 L365.751372,395.539997 L341.295238,409.915538 L315.090632,394.790803 Z M262.92139,395.718272 L288.821301,380.493175 L313.602385,394.796966 L287.702474,410.021623 L262.92139,395.718272 Z M420.511838,395.322986 L445.109312,380.86337 L470.055512,395.262241 L445.458038,409.721417 L420.511838,395.322986 Z M862.222839,409.085791 L888.306359,393.752409 L913.005985,408.008659 L886.922024,423.341601 L862.222839,409.085791 Z M810.48378,408.824761 L835.150382,394.324648 L860.734151,409.091513 L836.067988,423.591186 L810.48378,408.824761 Z M654.447185,408.948893 L679.076362,394.47123 L705.713352,409.845549 L681.084175,424.323653 L654.447185,408.948893 Z M758.713018,409.566032 L784.255397,394.551343 L808.995092,408.830484 L783.453153,423.845172 L758.713018,409.566032 Z M602.566787,410.072244 L628.491355,394.833061 L652.958938,408.955056 L627.03481,424.194238 L602.566787,410.072244 Z M550.313886,409.508368 L574.975205,395.011776 L601.078539,410.077966 L576.41722,424.574558 L550.313886,409.508368 Z M707.20204,409.839826 L732.214726,395.136348 L757.224771,409.571754 L732.212524,424.275232 L707.20204,409.839826 Z M288.448359,410.452123 L314.347829,395.227466 L340.552875,410.352201 L314.652964,425.577298 L288.448359,410.452123 Z M498.057903,410.559528 L524.106639,395.247275 L548.825198,409.51453 L522.776903,424.826783 L498.057903,410.559528 Z M446.204363,410.152357 L470.801837,395.692741 L496.569215,410.56525 L471.971301,425.025307 L446.204363,410.152357 Z M393.937813,410.943809 L419.769476,395.759649 L444.715235,410.15808 L418.884893,425.342679 L393.937813,410.943809 Z M342.041563,410.346479 L366.497257,395.970498 L392.450006,410.949971 L367.993871,425.325952 L342.041563,410.346479 Z M784.199478,424.276113 L809.741417,409.261424 L835.325185,424.027849 L809.783246,439.042537 L784.199478,424.276113 Z M627.780695,424.625179 L653.704823,409.385556 L680.341813,424.759875 L654.418125,439.999498 L627.780695,424.625179 Z M836.813873,424.022126 L861.480476,409.522453 L886.179222,423.777824 L861.513059,438.277937 L836.813873,424.022126 Z M523.522788,425.257284 L549.571083,409.94503 L575.674417,425.011221 L549.626122,440.323914 L523.522788,425.257284 Z M732.957969,424.705733 L757.971096,410.002695 L782.71035,424.281835 L757.698104,438.985313 L732.957969,424.705733 Z M681.8305,424.754153 L706.459677,410.276049 L731.470162,424.711895 L706.840985,439.189559 L681.8305,424.754153 Z M577.163545,425.005498 L601.824424,410.508466 L626.292007,424.630901 L601.630688,439.127933 L577.163545,425.005498 Z M419.630778,425.77362 L445.46156,410.58858 L471.228938,425.461089 L445.398156,440.646129 L419.630778,425.77362 Z M315.39929,426.007798 L341.29876,410.782701 L367.251508,425.762175 L341.352038,440.986832 L315.39929,426.007798 Z M472.717626,425.455807 L497.3151,410.996191 L522.0341,425.263006 L497.436185,439.722622 L472.717626,425.455807 Z M368.740196,425.756453 L393.19501,411.380472 L418.14209,425.778902 L393.686396,440.154883 L368.740196,425.756453 Z M810.529131,439.473478 L836.071511,424.458349 L860.770696,438.7146 L835.228317,453.729289 L810.529131,439.473478 Z M758.443989,439.415814 L783.456675,424.712335 L809.040444,439.4792 L784.028197,454.182678 L758.443989,439.415814 Z M602.377013,439.558433 L627.038332,425.061402 L653.675322,440.435721 L629.013563,454.932753 L602.377013,439.558433 Z M707.58687,439.620059 L732.215607,425.142396 L756.955301,439.421976 L732.326565,453.89964 L707.58687,439.620059 Z M655.16357,440.429998 L681.087698,425.190816 L706.098183,439.626222 L680.173614,454.865404 L655.16357,440.429998 Z M550.372007,440.754414 L576.420743,425.442161 L600.888325,439.564596 L574.83959,454.876849 L550.372007,440.754414 Z M498.18207,440.153563 L522.779985,425.693947 L548.883759,440.760577 L524.285404,455.220193 L498.18207,440.153563 Z M446.144041,441.076629 L471.975263,425.89247 L496.693823,440.159285 L470.8626,455.343885 L446.144041,441.076629 Z M342.097923,441.418212 L367.997393,426.193116 L392.943593,440.591546 L367.044563,455.816643 L342.097923,441.418212 Z M394.432281,440.585824 L418.887975,426.209843 L444.655793,441.082352 L420.200099,455.458773 L394.432281,440.585824 Z M733.07245,454.33014 L757.701186,439.852477 L783.285395,454.618901 L758.656218,469.097005 L733.07245,454.33014 Z M784.774082,454.613179 L809.786769,439.9097 L834.485514,454.165951 L809.473268,468.868989 L784.774082,454.613179 Z M575.585475,455.307349 L601.63421,439.995096 L628.27164,455.369415 L602.222464,470.681669 L575.585475,455.307349 Z M680.91994,455.296345 L706.844508,440.056722 L731.583762,454.336303 L705.659194,469.575485 L680.91994,455.296345 Z M471.608926,455.774385 L497.439708,440.590226 L523.543042,455.656416 L497.71226,470.841015 L471.608926,455.774385 Z M629.759448,455.363253 L654.421207,440.866661 L679.430811,455.302067 L654.769933,469.799099 L629.759448,455.363253 Z M367.790007,456.247143 L393.689918,441.022487 L419.457296,455.894996 L393.557825,471.119652 L367.790007,456.247143 Z M525.03173,455.650693 L549.629644,441.191077 L574.097227,455.313512 L549.499313,469.772688 L525.03173,455.650693 Z M420.945984,455.888833 L445.401678,441.513292 L470.120238,455.780107 L445.664984,470.156529 L420.945984,455.888833 Z M706.405519,470.005986 L732.330087,454.766803 L757.913856,469.533668 L731.989728,484.773291 L706.405519,470.005986 Z M759.402543,469.527505 L784.03128,455.049842 L808.730906,469.305652 L784.101289,483.783756 L759.402543,469.527505 Z M655.515818,470.229599 L680.177137,455.732568 L704.916391,470.012148 L680.255512,484.50918 L655.515818,470.229599 Z M550.245198,470.203628 L574.842672,455.743572 L601.479662,471.118332 L576.882187,485.577948 L550.245198,470.203628 Z M602.96879,471.112609 L629.016645,455.799916 L654.02713,470.235762 L627.978834,485.547575 L602.96879,471.112609 Z M498.458585,471.271516 L524.288927,456.086916 L548.75695,470.209351 L522.925727,485.393951 L498.458585,471.271516 Z M446.410869,470.587029 L470.866123,456.211048 L496.969457,471.277678 L472.514203,485.653659 L446.410869,470.587029 Z M394.304151,471.550593 L420.203621,456.325496 L444.922181,470.592751 L419.02271,485.817408 L394.304151,471.550593 Z M732.735613,485.203351 L758.659741,469.964168 L783.359367,484.220419 L757.434798,499.459602 L732.735613,485.203351 Z M681.001397,484.93968 L705.662716,470.442649 L731.247365,485.209513 L706.586046,499.706545 L681.001397,484.93968 Z M523.672053,485.824891 L549.502835,470.639851 L576.139825,486.01461 L550.308602,501.19921 L523.672053,485.824891 Z M628.72516,485.978956 L654.773455,470.666262 L679.512709,484.945403 L653.464414,500.257656 L628.72516,485.978956 Z M419.769035,486.248348 L445.668506,471.023252 L471.77184,486.090322 L445.87237,501.314979 L419.769035,486.248348 Z M577.628513,486.008448 L602.225987,471.548832 L627.236472,485.984238 L602.638557,500.443854 L577.628513,486.008448 Z M473.260088,486.083719 L497.715782,471.708179 L522.183365,485.830173 L497.727671,500.206154 L473.260088,486.083719 Z M654.210739,500.688596 L680.259034,485.376343 L705.843243,500.142768 L679.794507,515.455021 L654.210739,500.688596 Z M707.331931,500.137045 L731.99325,485.640014 L756.692436,499.896264 L732.031117,514.392856 L707.331931,500.137045 Z M498.473996,500.637095 L522.92925,486.260674 L549.56668,501.635873 L525.110545,516.011414 L498.473996,500.637095 Z M603.384442,500.874794 L627.982357,486.414738 L652.722051,500.694319 L628.124577,515.153935 L603.384442,500.874794 Z M551.054487,501.62927 L576.88615,486.445111 L601.895754,500.880517 L576.064972,516.065116 L551.054487,501.62927 Z M446.617374,501.745479 L472.517725,486.520382 L496.985308,500.642817 L471.085397,515.867914 L446.617374,501.745479 Z M680.540833,515.885961 L706.589128,500.573708 L731.288314,514.829519 L705.240018,530.141772 L680.540833,515.885961 Z M471.831722,516.297974 L497.731193,501.073317 L524.368183,516.448077 L498.468712,531.672733 L471.831722,516.297974 Z M628.870022,515.584875 L653.467936,501.124819 L679.051704,515.891684 L654.45423,530.3513 L628.870022,515.584875 Z M576.811297,516.495617 L602.641639,501.311017 L627.381774,515.590598 L601.550551,530.774757 L576.811297,516.495617 Z M525.856871,516.441914 L550.311684,502.065933 L575.322169,516.501339 L550.866915,530.87732 L525.856871,516.441914 Z M602.296436,531.205258 L628.127659,516.020658 L653.711868,530.787963 L627.881085,545.972562 L602.296436,531.205258 Z M655.200115,530.7818 L679.79803,516.322184 L704.497216,530.578435 L679.899301,545.038051 L655.200115,530.7818 Z M499.214597,532.103674 L525.114068,516.878577 L550.124553,531.313983 L524.224642,546.53864 L499.214597,532.103674 Z M551.613241,531.308261 L576.068495,516.931839 L600.807749,531.21142 L576.352495,545.587401 L551.613241,531.308261 Z M628.626971,546.402623 L654.457753,531.218463 L679.156939,545.474714 L653.326156,560.659314 L628.626971,546.402623 Z M577.09882,546.017901 L601.554074,531.64192 L627.138283,546.409225 L602.682588,560.784766 L577.09882,546.017901 Z M524.970527,546.96914 L550.870438,531.744043 L575.610132,546.024064 L549.710221,561.248721 L524.970527,546.96914 Z M550.456546,561.679221 L576.356017,546.454564 L601.939785,561.221429 L576.040315,576.446086 L550.456546,561.679221 Z M603.428914,561.215267 L627.884168,546.839285 L652.583353,561.095536 L628.127659,575.471517 L603.428914,561.215267 Z M576.78664,576.877026 L602.686111,561.651929 L627.385737,575.90818 L601.485386,591.132837 L576.78664,576.877026 Z" id="蒙版" fill="url(#linearGradient-4)" mask="url(#mask-3)"></path>
            </g>
            <g id="编组-5复制-4" transform="translate(1895.000000, 290.000000)">
                <path d="M120,100.044012 C120.443334,102.037707 119.571711,104.171361 117.708246,105.244458 L64.8982071,135.655709 C61.9379159,137.360426 58.2947409,137.363633 55.3314524,135.664132 L2.298736,105.248881 C1.49584373,104.788407 0.843204941,104.105623 0.419430393,103.28277 C-0.11470168,102.245633 -0.234337439,101.104364 -1.64090963e-13,100.048024 L0,31.2142727 L120,31.2142727 L120,100.044012 Z" id="形状结合" fill="url(#linearGradient-5)"></path>
                <path d="M54.660729,1.32486711 L2.59652092,27.8376913 C0.23421302,29.0406569 -0.705619565,31.9308822 0.497346087,34.2931901 C0.924341245,35.1316962 1.58837311,35.8262068 2.40688604,36.290377 L55.37199,66.3263362 C58.3145461,67.9950291 61.9181615,67.9918744 64.8577914,66.3180319 L117.600513,36.2860168 C119.904202,34.9742832 120.70834,32.0434046 119.396606,29.7397163 C118.933754,28.9268479 118.243478,28.2669314 117.410627,27.8410837 L65.5691784,1.33386801 C62.1445988,-0.417164638 58.0881936,-0.420511706 54.660729,1.32486711 Z" id="Fill-7" fill="url(#linearGradient-6)"></path>
                <path d="M120,72.1052632 L64.4175748,103.695067 C61.4813809,105.363828 57.8842932,105.366974 54.9451847,103.703352 L0,72.602748 L0,67.7957305 L54.9451847,98.8963342 C57.8842932,100.559957 61.4813809,100.556811 64.4175748,98.8880496 L120,67.2982456 L120,72.1052632 Z" id="形状结合" fill="url(#linearGradient-7)"></path>
            </g>
            <g id="编组-5复制-2" transform="translate(1020.000000, 159.000000)">
                <path d="M80,66.5416641 C80.2502989,67.8461456 79.6656235,69.222144 78.4489536,69.9202199 L43.2567239,90.1120956 C41.2876584,91.2418656 38.8674572,91.2439926 36.896409,90.1176853 L1.55579112,69.9231548 C1.01714977,69.6153614 0.579591079,69.157633 0.296367544,68.6056767 C-0.0425761995,67.9451309 -0.129611015,67.2216973 -4.86087559e-12,66.5449681 L0,20.733568 L80,20.733568 L80,66.5416641 Z" id="形状结合" fill="url(#linearGradient-8)"></path>
                <path d="M36.4510402,0.874666263 L1.75441269,18.4788573 C0.178358016,19.2785076 -0.45104211,21.204397 0.348608159,22.7804516 C0.633946916,23.3428343 1.07909301,23.8083702 1.62814133,24.1185935 L36.9234078,44.0611222 C38.8806187,45.1669853 41.2745305,45.1648935 43.2298058,44.0556116 L78.3768822,24.1157002 C79.9140461,23.2436245 80.4532066,21.2905499 79.5811309,19.753386 C79.271774,19.2080982 78.8090575,18.7656927 78.2504416,18.4811075 L43.7022579,0.880636622 C41.4249109,-0.279551128 38.7302946,-0.281769766 36.4510402,0.874666263 Z" id="Fill-7" fill="url(#linearGradient-9)"></path>
                <path d="M80,47.8947368 L42.9363325,68.8826817 C40.9833503,69.9885917 38.5937765,69.9906777 36.6388665,68.8881792 L-7.10542736e-15,48.225183 L0,45.0322005 L36.6388665,65.6951967 C38.5937765,66.7976953 40.9833503,66.7956093 42.9363325,65.6896992 L80,44.7017544 L80,47.8947368 Z" id="形状结合" fill="url(#linearGradient-10)"></path>
            </g>
        </g>
    </g>
</svg>